#N canvas 6 295 1428 573 10;
#X obj -2 -244 cnv 15 800 1000 empty empty empty 20 12 0 14 -128992
-66577 0;
#X obj 5 -237 cnv 15 780 880 empty empty Blob 20 12 0 14 -260145 -4
0;
#X obj 10 -215 cnv 15 695 800 empty empty Camera_Captation-gestuelle
20 12 0 14 -211904 -4 0;
#X obj 345 154 / 100;
#X obj 233 212 pix_motionblur;
#X obj 426 130 vsl 15 60 0 1 0 0 empty empty blur 0 -8 0 8 -195568
-258699 -1 0 1;
#X floatatom 426 198 5 0 0 0 - - -, f 5;
#X obj 244 175 pix_movement 0.5;
#X obj 384 27 inlet;
#X obj 459 111 inlet;
#X msg 426 97 0.5;
#X floatatom 345 136 5 0 100 2 - - -, f 5;
#X obj 345 46 vsl 17 80 0 100 0 0 empty empty Thresold 0 -8 0 8 -228992
-258699 -1 0 1;
#X msg 345 13 17;
#X obj 233 569 color;
#X floatatom 310 606 5 0 0 0 - - -, f 5;
#X floatatom 344 606 5 0 0 0 - - -, f 5;
#X floatatom 455 685 5 0 0 0 - - -, f 5;
#X obj 462 596 inlet;
#X obj 233 590 pix_texture;
#X obj 233 620 rectangle 5.334 4;
#X obj 233 539 alpha;
#X msg 105 -87 open 0;
#X msg 105 -67 enumerate;
#X msg 105 -50 setup;
#X msg 105 -30 dialog format;
#X obj 233 -146 tgl 25 0 empty empty Gem 0 -6 0 8 -258699 -1 -1 0 1
;
#X msg 105 -137 close;
#X msg 105 -104 open 1;
#X obj 233 -3 pix_rgba;
#X msg 105 -121 open 2;
#X obj 592 -207 cnv 15 100 60 empty empty CAM_01 20 12 0 14 -262131
-66577 0;
#X obj 105 -178 inlet;
#X msg 105 -157 dialog;
#X msg 103 240 driver 0;
#X obj 232 -182 inlet;
#X msg 104 192 colorspace RGBA;
#X msg 103 219 device 1;
#X msg 103 279 device \$1;
#X floatatom 104 263 5 0 0 0 - - -, f 5;
#X msg 104 154 reset;
#X msg 104 172 quality \$1;
#X obj 104 120 hradio 15 1 0 4 empty empty empty 0 -6 0 8 -262144 -1
-1 0;
#X floatatom 104 135 5 0 0 0 - - -, f 5;
#X text 364 451 X;
#X obj 233 519 spigot;
#X obj 373 470 inlet;
#X obj 365 501 tgl 19 0 empty empty Affichage_webcam 0 -6 0 8 -24198
-261689 -1 1 1;
#X obj 295 512 inlet;
#X obj 269 541 tgl 19 0 empty empty Alpha 0 -6 0 8 -33289 -262144 -1
1 1;
#X text 351 -30 pix_video 720 576 pour MACOS avec camera DV;
#X obj 233 -30 pix_video;
#X text 351 -18 pix_videoDS pour Windows pour options avec camera DV
;
#X msg 357 -59 device 1;
#N canvas 162 133 570 420 serin 0;
#X obj 205 60 cnv 20 20 20 empty \$0-open-canvas 1 4 10 0 16 -233017
-1 0;
#X obj 60 61 hradio 18 1 1 8 empty empty empty 0 -6 0 8 -225271 -1
-1 1;
#X obj 60 13 inlet;
#X msg 200 202 label \$1;
#X obj 200 180 makefilename %d;
#X obj 59 108 int;
#X obj 59 337 outlet;
#X msg 201 306 set \$1 \$2;
#X obj 59 266 trigger bang anything;
#X obj 201 286 list;
#X obj 200 225 send \$0-open-canvas;
#X msg 60 210 device \$1;
#X connect 1 0 5 0;
#X connect 2 0 1 0;
#X connect 3 0 10 0;
#X connect 4 0 3 0;
#X connect 5 0 4 0;
#X connect 5 0 11 0;
#X connect 7 0 6 0;
#X connect 8 0 6 0;
#X connect 8 1 9 0;
#X connect 9 0 7 0;
#X connect 11 0 8 0;
#X coords 0 -1 1 1 165 20 1 60 60;
#X restore 357 -83 pd serin;
#X msg 164 240 driver 1;
#X obj 298 -183 bng 15 250 50 0 empty empty empty 17 7 0 10 -262144
-1 -1;
#X obj 637 -102 inlet;
#X obj 159 602 s gemhhh;
#X obj 233 499 separator;
#X obj 162 549 separator;
#X msg 105 71 driver dv;
#X floatatom 268 72 5 0 0 1 contrast - -, f 5;
#X floatatom 303 98 5 0 0 0 saturation - -, f 5;
#X obj 234 126 pix_contrast;
#X msg 495 55 128;
#X msg 496 81 400;
#X msg 529 55 10;
#X msg 530 81 66;
#X msg 563 55 6;
#X msg 564 81 37;
#X msg 596 55 3.62;
#X msg 597 81 0;
#X msg 633 55 1;
#X msg 634 81 1;
#X msg 666 55 27;
#X msg 667 81 -0.28;
#X floatatom 308 -11 5 0 0 0 - - -, f 5;
#X msg 308 -35 100;
#X obj 547 8 random 100;
#X obj 251 32 pix_delay 100;
#X obj 233 476 rotateXYZ 0 0 0;
#X floatatom 295 453 5 0 0 0 - - -, f 5;
#X msg 168 263 driver 2;
#X msg 311 -112 device /dev/raw1394;
#X msg 105 -11 colorspace RGBA;
#X msg 104 7 quality \$1;
#X msg 104 96 colorspace YUV;
#X obj 234 153 pix_deinterlace;
#X obj 702 55 inlet;
#X obj 720 81 inlet;
#X obj 234 55 pix_gain 1;
#X obj 748 38 inlet;
#X floatatom 427 11 5 0 0 0 - - -, f 5;
#X floatatom 284 307 4 0 0 1 width - -, f 4;
#X floatatom 294 289 4 0 0 1 height - -, f 4;
#X floatatom 304 271 4 0 0 1 bytes/pixel - -, f 4;
#X floatatom 336 266 5 0 0 1 coulorspace - -, f 5;
#X obj 255 246 pix_info . . . .;
#X obj 356 -150 metro 40;
#X obj 356 -174 tgl 15 0 empty empty empty 17 7 0 10 -262144 -1 -1
0 1;
#X floatatom 402 -169 5 0 0 0 - - -, f 5;
#X msg 258 -73 dimen 800 600;
#X msg 260 -94 dimen 768 576;
#X msg 475 9 1;
#X msg 470 35 -1;
#X obj 463 492 vsl 8 50 0 1 0 0 empty empty empty 0 -8 0 8 -258699
-1 -1 4900 1;
#X obj 470 492 vsl 8 50 0 1 0 0 empty empty empty 0 -8 0 8 -24198 -1
-1 4900 1;
#X obj 478 492 vsl 8 50 0 1 0 0 empty empty empty 0 -8 0 8 -355 -1
-1 4900 1;
#N canvas 850 318 460 310 color 0;
#X obj 44 212 pack f f f f;
#X msg 44 236 \$1 \$2 \$3 \$4;
#X obj 26 145 bng 15 250 50 0 empty empty empty 0 -6 0 8 -262144 -1
-1;
#X obj 41 144 t b f;
#X obj 41 35 vsl 8 50 0 1 0 0 empty empty empty 0 -8 0 8 -258699 -1
-1 4900 1;
#X obj 49 35 vsl 8 50 0 1 0 0 empty empty empty 0 -8 0 8 -24198 -1
-1 4900 1;
#X obj 57 35 vsl 8 50 0 1 0 0 empty empty empty 0 -8 0 8 -355 -1 -1
4900 1;
#X obj 65 35 vsl 8 50 0 1 0 0 empty empty empty 0 -8 0 8 -195568 -1
-1 2481 1;
#X obj 63 167 t b f;
#X obj 86 189 t b f;
#X floatatom 77 86 5 0 0 0 - - -, f 5;
#X floatatom 67 101 5 0 0 0 - - -, f 5;
#X floatatom 53 115 5 0 0 0 - - -, f 5;
#X floatatom 35 129 5 0 0 0 - - -, f 5;
#X obj 17 7 inlet;
#X obj 52 7 inlet;
#X obj 87 7 inlet;
#X obj 122 8 inlet;
#X obj 44 261 outlet;
#X connect 0 0 1 0;
#X connect 1 0 18 0;
#X connect 2 0 0 0;
#X connect 3 0 0 0;
#X connect 3 1 0 1;
#X connect 4 0 0 0;
#X connect 4 0 13 0;
#X connect 5 0 3 0;
#X connect 5 0 12 0;
#X connect 6 0 8 0;
#X connect 6 0 11 0;
#X connect 7 0 9 0;
#X connect 7 0 10 0;
#X connect 8 0 0 0;
#X connect 8 1 0 2;
#X connect 9 0 0 0;
#X connect 9 1 0 3;
#X connect 14 0 4 0;
#X connect 15 0 5 0;
#X connect 16 0 6 0;
#X connect 17 0 7 0;
#X restore 453 552 pd color;
#X obj 486 492 vsl 8 50 0 1 0 0 empty empty empty 0 -8 0 8 -195568
-1 -1 2481 1;
#X msg 470 461 1;
#X obj 487 480 tgl 10 0 empty empty empty 17 7 0 10 -99865 -262144
-1 0 1;
#X msg 519 473 0.551;
#X msg 508 449 0.857;
#X obj 810 308 inlet;
#X obj 477 425 loadbang;
#X msg 842 -300 enumProps;
#X obj 832 -482 cnv 15 400 80 empty empty readProperties 20 12 0 14
-233017 -66577 0;
#X obj 840 -456 hradio 15 1 0 1 \$0-propreadId \$0-propreadId empty
0 -8 0 10 -262144 -1 -1 0;
#X obj 841 -433 cnv 15 260 20 empty \$0-propreadName <none> 10 9 0
14 -203904 -66577 0;
#N canvas 186 50 450 537 PropertyLogic 0;
#N canvas 586 84 774 460 id2property 0;
#X obj 353 106 r \$0-info;
#X obj 353 130 route proplist;
#X obj 353 152 route read numread;
#X obj 405 176 t b f;
#X obj 353 174 list;
#X obj 353 219 list prepend;
#X msg 353 196 \$1;
#X obj 353 239 t l l;
#X obj 95 197 list prepend;
#X obj 525 176 t b f;
#X obj 473 174 list;
#X obj 473 219 list prepend;
#X msg 473 196 \$1;
#X obj 473 239 t l l;
#X obj 473 152 route write numwrite;
#X obj 95 69 inlet readID;
#X obj 225 70 inlet writeID;
#X obj 180 378 outlet readName;
#X obj 310 356 outlet writeName;
#X obj 95 176 t b f;
#X obj 95 219 list split;
#X obj 180 316 symbol;
#X msg 180 291 symbol \$1;
#X obj 225 197 list prepend;
#X obj 225 176 t b f;
#X obj 225 219 list split;
#X obj 310 316 symbol;
#X msg 310 291 symbol \$1;
#X obj 95 91 route float;
#X obj 225 92 route float;
#X msg 432 333 number \$1;
#X msg 552 333 number \$1;
#X obj 432 353 s \$0-propreadId;
#X obj 552 353 s \$0-propwriteId;
#X obj 602 254 t f f;
#X msg 602 232 0;
#X obj 602 211 loadbang;
#X obj 123 258 route bang;
#X obj 253 258 route bang;
#X connect 0 0 1 0;
#X connect 1 0 2 0;
#X connect 2 0 4 0;
#X connect 2 1 3 0;
#X connect 2 2 14 0;
#X connect 3 0 5 1;
#X connect 3 1 30 0;
#X connect 4 0 6 0;
#X connect 5 0 7 0;
#X connect 6 0 5 0;
#X connect 7 0 8 1;
#X connect 7 1 5 1;
#X connect 8 0 20 0;
#X connect 9 0 11 1;
#X connect 9 1 31 0;
#X connect 10 0 12 0;
#X connect 11 0 13 0;
#X connect 12 0 11 0;
#X connect 13 0 23 1;
#X connect 13 1 11 1;
#X connect 14 0 10 0;
#X connect 14 1 9 0;
#X connect 15 0 28 0;
#X connect 16 0 29 0;
#X connect 19 0 8 0;
#X connect 19 1 20 1;
#X connect 20 1 37 0;
#X connect 21 0 17 0;
#X connect 22 0 21 0;
#X connect 23 0 25 0;
#X connect 24 0 23 0;
#X connect 24 1 25 1;
#X connect 25 1 38 0;
#X connect 26 0 18 0;
#X connect 27 0 26 0;
#X connect 28 0 19 0;
#X connect 29 0 24 0;
#X connect 30 0 32 0;
#X connect 31 0 33 0;
#X connect 34 0 30 0;
#X connect 34 1 31 0;
#X connect 35 0 34 0;
#X connect 36 0 35 0;
#X connect 37 1 22 0;
#X connect 38 1 27 0;
#X restore 188 192 pd id2property;
#X obj 320 407 list prepend set;
#X obj 320 429 list trim;
#X obj 320 451 t b a;
#N canvas 438 137 450 300 getProp 0;
#X obj 44 177 s \$0-propreadName;
#X msg 44 156 label \$1;
#X msg 165 156 get \$1;
#X obj 44 81 inlet;
#X obj 165 178 outlet;
#X obj 290 57 r \$0-info;
#X obj 290 79 route prop;
#N canvas 3 50 450 300 sroute 0;
#X obj 73 12 inlet;
#X obj 312 9 inlet;
#X obj 73 113 outlet;
#X obj 73 34 list split 1;
#X obj 73 56 select s;
#X obj 73 78 list prepend;
#X connect 0 0 3 0;
#X connect 1 0 4 1;
#X connect 3 0 4 0;
#X connect 3 1 5 1;
#X connect 4 0 5 0;
#X connect 5 0 2 0;
#X restore 290 113 pd sroute;
#X obj 44 123 t s s s;
#X msg 290 226 label \$1;
#X obj 290 247 s \$0-propreadValue;
#X obj 290 135 route float;
#X obj 290 157 makefilename %g;
#X obj 106 29 loadbang;
#X obj 106 51 t b b;
#X msg 106 73 symbol <none>;
#X msg 196 74 symbol --;
#X obj 353 181 symbol;
#X connect 1 0 0 0;
#X connect 2 0 4 0;
#X connect 3 0 8 0;
#X connect 5 0 6 0;
#X connect 6 0 7 0;
#X connect 7 0 11 0;
#X connect 8 0 1 0;
#X connect 8 1 2 0;
#X connect 8 2 7 1;
#X connect 9 0 10 0;
#X connect 11 0 12 0;
#X connect 11 1 17 0;
#X connect 12 0 9 0;
#X connect 13 0 14 0;
#X connect 14 0 15 0;
#X connect 14 1 16 0;
#X connect 15 0 1 0;
#X connect 16 0 9 0;
#X connect 17 0 9 0;
#X restore 320 318 pd getProp;
#X obj 172 158 r \$0-propreadId;
#X obj 282 158 r \$0-propwriteId;
#N canvas 432 95 450 467 setProp 0;
#X msg 44 156 label \$1;
#X msg 165 156 get \$1;
#X obj 44 31 inlet;
#X obj 218 324 outlet;
#X obj 290 57 r \$0-info;
#X obj 290 79 route prop;
#N canvas 4 50 450 300 sroute 0;
#X obj 73 12 inlet;
#X obj 312 9 inlet;
#X obj 73 113 outlet;
#X obj 73 34 list split 1;
#X obj 73 56 select s;
#X obj 73 78 list prepend;
#X connect 0 0 3 0;
#X connect 1 0 4 1;
#X connect 3 0 4 0;
#X connect 3 1 5 1;
#X connect 4 0 5 0;
#X connect 5 0 2 0;
#X restore 290 113 pd sroute;
#X obj 290 135 route float;
#X obj 44 177 s \$0-propwriteName;
#X obj 290 247 s \$0-propwriteValue;
#X msg 290 226 set \$1;
#X obj 50 276 r \$0-propwriteValue;
#X obj 50 298 route float;
#X obj 50 320 pack 0 s;
#X msg 50 342 set \$2 \$1;
#X obj 44 73 t s s s s;
#X obj 127 27 loadbang;
#X obj 127 49 t b b;
#X msg 127 71 symbol <none>;
#X connect 0 0 8 0;
#X connect 1 0 3 0;
#X connect 2 0 15 0;
#X connect 4 0 5 0;
#X connect 5 0 6 0;
#X connect 6 0 7 0;
#X connect 7 0 10 0;
#X connect 10 0 9 0;
#X connect 11 0 12 0;
#X connect 12 0 13 0;
#X connect 13 0 14 0;
#X connect 14 0 3 0;
#X connect 15 0 0 0;
#X connect 15 1 1 0;
#X connect 15 2 6 1;
#X connect 15 3 13 1;
#X connect 16 0 17 0;
#X connect 17 0 18 0;
#X connect 18 0 0 0;
#X restore 199 315 pd setProp;
#X obj 199 404 list prepend set;
#X obj 199 426 list trim;
#X obj 199 448 t b a;
#X obj 199 361 list prepend get;
#X obj 199 339 route get set;
#X obj 309 361 list prepend set;
#X obj 199 477 s \$0-propset;
#X obj 320 480 s \$0-propget;
#X obj 54 38 inlet;
#X obj 54 66 outlet;
#X connect 0 0 4 0;
#X connect 0 1 7 0;
#X connect 1 0 2 0;
#X connect 2 0 3 0;
#X connect 3 0 15 0;
#X connect 3 1 15 0;
#X connect 4 0 12 0;
#X connect 5 0 0 0;
#X connect 6 0 0 1;
#X connect 7 0 12 0;
#X connect 8 0 9 0;
#X connect 9 0 10 0;
#X connect 10 0 14 0;
#X connect 10 1 14 0;
#X connect 11 0 1 0;
#X connect 12 0 11 0;
#X connect 12 1 13 0;
#X connect 13 0 8 0;
#X connect 16 0 17 0;
#X restore 842 23 pd PropertyLogic;
#X obj 1111 -433 cnv 15 100 20 empty \$0-propreadValue -- 10 9 0 14
-261234 -66577 0;
#X obj 832 -392 cnv 15 400 80 empty empty writeProperties 20 12 0 14
-233017 -66577 0;
#X obj 840 -366 hradio 15 1 0 1 \$0-propwriteId \$0-propwriteId empty
0 -8 0 10 -262144 -1 -1 0;
#X obj 841 -343 cnv 15 260 20 empty \$0-propwriteName <none> 10 9 0
14 -203904 -66577 0;
#X obj 1112 -343 nbx 5 20 -1e+37 1e+37 0 0 \$0-propwriteValue \$0-propwriteValue
empty 0 -8 0 14 -204786 -1 -1 0 256;
#X msg 867 -188 get bus_info;
#X msg 884 -111 set quality 5;
#X obj 867 -209 r \$0-propget;
#X obj 884 -131 r \$0-propset;
#X msg 888 -163 get Hue Saturation;
#X text 1009 -163 you can query several properties at once;
#X text 947 -208 query a (readable) property via a message "get <propname>"
;
#X text 962 -131 set a (writable) property via a message "set <prop>
<value>";
#X text 871 -279 this will return 2 lists of readable and writeable
properties through the "info" outlet of [pix_video].;
#X text 873 -246 NOTE that propertynames are always single symbols
that might contain spaces (and other weird characters);
#X text 904 -300 INIT: query names of all available properties;
#X text 884 -80 ATOMIC setting of multiple properties;
#X msg 900 -62 clearProps;
#X msg 900 0 applyProps;
#X msg 900 -22 setProps Hue 10;
#X msg 900 -42 setProps Contrast 40;
#X text 1048 -60 clear the current property list;
#X text 1048 -42 add values to the property list (don't apply yet)
;
#X text 1048 -24 add values to the property list (don't apply yet)
;
#X text 1048 -4 apply current property list;
#X floatatom 317 391 5 0 0 0 - - -, f 5;
#X obj 234 417 translateXYZ 0 0 0;
#X floatatom 275 393 5 0 0 0 - - -, f 5;
#X msg 321 367 2;
#X msg 105 12;
#X msg 330 342 0;
#X obj 479 390 line;
#X msg 479 365 \$1 \$2;
#X obj 479 343 pack f f;
#X floatatom 530 319 5 0 0 0 - - -, f 5;
#X floatatom 479 321 5 0 0 0 - - -, f 5;
#X obj 383 406 line;
#X msg 383 381 \$1 \$2;
#X obj 383 359 pack f f;
#X floatatom 434 335 5 0 0 0 - - -, f 5;
#X floatatom 383 337 5 0 0 0 - - -, f 5;
#X msg 496 294 2;
#X msg 378 289 0;
#X msg 471 269 0;
#X obj 496 183 bng 15 250 50 0 empty empty empty 17 7 0 10 -262144
-1 -1;
#X obj 571 176 bng 15 250 50 0 empty empty empty 17 7 0 10 -262144
-1 -1;
#X obj 571 196 t b b b;
#X obj 496 204 t b b b;
#X obj 577 567 line;
#X msg 577 542 \$1 \$2;
#X obj 577 520 pack f f;
#X floatatom 628 496 5 0 0 0 - - -, f 5;
#X floatatom 577 498 5 0 0 0 - - -, f 5;
#X msg 589 447 3.565;
#X msg 580 472 7.13;
#X msg 385 312 3.54;
#X msg 275 367 3.54;
#X obj 643 331 f \$2;
#X obj 694 332 f \$3;
#X obj 733 210 r \$1-msg;
#X floatatom 731 270 5 0 0 0 - - -, f 5;
#X obj 817 227 print msg;
#X obj 470 233 loadbang;
#X obj 817 250 route opacity big;
#X obj 628 445 loadbang;
#X obj 741 481 line;
#X msg 741 456 \$1 \$2;
#X obj 741 434 pack f f;
#X floatatom 792 410 5 0 0 0 - - -, f 5;
#X msg 792 386 500;
#X floatatom 741 412 5 0 0 0 - - -, f 5;
#X obj 792 359 loadbang;
#X obj 862 283 sel 1;
#X obj 791 334 r opa;
#X msg 434 311 100;
#X msg 530 295 100;
#X msg 628 472 100;
#X obj 644 113 r big;
#X obj 642 135 sel 1;
#X obj 480 -175 loadbang;
#X obj 480 -147 f \$1;
#X obj 480 -109 - 1;
#X obj 509 30 r gain;
#X obj 371 80 r sat;
#X obj 369 54 r cont;
#X obj 465 140 r mob;
#X msg 103 42 device /dev/video2;
#X obj 344 565 * 480;
#X obj 344 586 / 640;
#X obj 190 325 loadbang;
#X obj 1034 545 color;
#X floatatom 1111 582 5 0 0 0 - - -, f 5;
#X floatatom 1145 582 5 0 0 0 - - -, f 5;
#X floatatom 1111 547 5 0 0 0 - - -, f 5;
#X obj 1111 527 inlet;
#X obj 1034 566 pix_texture;
#X obj 1034 596 rectangle 5.334 4;
#X obj 1034 515 alpha;
#X text 1165 427 X;
#X obj 1034 495 spigot;
#X obj 1166 477 tgl 19 0 empty empty Affichage_webcam 0 -6 0 8 -24198
-261689 -1 1 1;
#X obj 1096 488 inlet;
#X obj 1070 517 tgl 19 0 empty empty Alpha 0 -6 0 8 -33289 -262144
-1 0 1;
#X obj 960 578 s gemhhh;
#X obj 1034 475 separator;
#X obj 963 525 separator;
#X obj 1034 452 rotateXYZ 0 0 0;
#X floatatom 1096 429 5 0 0 0 - - -, f 5;
#X floatatom 1118 367 5 0 0 0 - - -, f 5;
#X obj 1035 393 translateXYZ 0 0 0;
#X floatatom 1076 369 5 0 0 0 - - -, f 5;
#X msg 1122 343 2;
#X msg 1131 318 0;
#X obj 1145 541 * 480;
#X obj 1145 562 / 640;
#X obj 991 301 loadbang;
#X obj 149 373 separator;
#X obj 948 366 separator;
#X obj 233 -117 gemhead 21;
#X msg 548 619 5.334;
#X msg 402 510 6.07;
#X obj 1222 339 vsl 8 50 0 1 0 0 empty empty empty 0 -8 0 8 -258699
-1 -1 4900 1;
#X obj 1229 339 vsl 8 50 0 1 0 0 empty empty empty 0 -8 0 8 -24198
-1 -1 4900 1;
#X obj 1237 339 vsl 8 50 0 1 0 0 empty empty empty 0 -8 0 8 -355 -1
-1 4900 1;
#N canvas 850 318 460 310 color 0;
#X obj 44 212 pack f f f f;
#X msg 44 236 \$1 \$2 \$3 \$4;
#X obj 26 145 bng 15 250 50 0 empty empty empty 0 -6 0 8 -262144 -1
-1;
#X obj 41 144 t b f;
#X obj 41 35 vsl 8 50 0 1 0 0 empty empty empty 0 -8 0 8 -258699 -1
-1 4900 1;
#X obj 49 35 vsl 8 50 0 1 0 0 empty empty empty 0 -8 0 8 -24198 -1
-1 4900 1;
#X obj 57 35 vsl 8 50 0 1 0 0 empty empty empty 0 -8 0 8 -355 -1 -1
4900 1;
#X obj 65 35 vsl 8 50 0 1 0 0 empty empty empty 0 -8 0 8 -195568 -1
-1 2481 1;
#X obj 63 167 t b f;
#X obj 86 189 t b f;
#X floatatom 77 86 5 0 0 0 - - -, f 5;
#X floatatom 67 101 5 0 0 0 - - -, f 5;
#X floatatom 53 115 5 0 0 0 - - -, f 5;
#X floatatom 35 129 5 0 0 0 - - -, f 5;
#X obj 17 7 inlet;
#X obj 52 7 inlet;
#X obj 87 7 inlet;
#X obj 122 8 inlet;
#X obj 44 261 outlet;
#X connect 0 0 1 0;
#X connect 1 0 18 0;
#X connect 2 0 0 0;
#X connect 3 0 0 0;
#X connect 3 1 0 1;
#X connect 4 0 0 0;
#X connect 4 0 13 0;
#X connect 5 0 3 0;
#X connect 5 0 12 0;
#X connect 6 0 8 0;
#X connect 6 0 11 0;
#X connect 7 0 9 0;
#X connect 7 0 10 0;
#X connect 8 0 0 0;
#X connect 8 1 0 2;
#X connect 9 0 0 0;
#X connect 9 1 0 3;
#X connect 14 0 4 0;
#X connect 15 0 5 0;
#X connect 16 0 6 0;
#X connect 17 0 7 0;
#X restore 1216 441 pd color;
#X obj 1245 339 vsl 8 50 0 1 0 0 empty empty empty 0 -8 0 8 -195568
-1 -1 2481 1;
#X msg 1229 308 1;
#X obj 1246 327 tgl 10 0 empty empty empty 17 7 0 10 -99865 -262144
-1 0 1;
#X msg 1278 320 0.551;
#X msg 1267 296 0.857;
#X obj 1236 272 loadbang;
#X floatatom 1257 421 5 0 0 0 - - -, f 5;
#X msg 1076 343 0;
#X msg 1161 511 7.1;
#X floatatom 378 435 5 0 0 0 - - -, f 5;
#X obj 1231 482 loadbang;
#X msg 1231 504 1;
#X msg 284 342 0;
#X msg 1122 505 6.07;
#X msg 1085 319 12.78;
#X obj 908 142 loadbang;
#X msg 873 175 0.551;
#X msg 936 173 1;
#X connect 3 0 7 1;
#X connect 4 0 238 0;
#X connect 4 0 239 0;
#X connect 5 0 6 0;
#X connect 6 0 4 1;
#X connect 7 0 4 0;
#X connect 8 0 12 0;
#X connect 9 0 5 0;
#X connect 10 0 5 0;
#X connect 11 0 3 0;
#X connect 12 0 11 0;
#X connect 13 0 12 0;
#X connect 14 0 19 0;
#X connect 15 0 20 1;
#X connect 16 0 20 2;
#X connect 17 0 15 0;
#X connect 17 0 209 0;
#X connect 18 0 17 0;
#X connect 18 0 215 0;
#X connect 19 0 20 0;
#X connect 21 0 14 0;
#X connect 22 0 51 0;
#X connect 23 0 51 0;
#X connect 24 0 51 0;
#X connect 25 0 51 0;
#X connect 26 0 240 0;
#X connect 27 0 51 0;
#X connect 28 0 51 0;
#X connect 29 0 91 0;
#X connect 29 0 98 0;
#X connect 30 0 51 0;
#X connect 32 0 33 0;
#X connect 33 0 51 0;
#X connect 34 0 51 0;
#X connect 35 0 26 0;
#X connect 36 0 51 0;
#X connect 37 0 51 0;
#X connect 38 0 51 0;
#X connect 39 0 38 0;
#X connect 40 0 51 0;
#X connect 41 0 51 0;
#X connect 42 0 43 0;
#X connect 43 0 41 0;
#X connect 45 0 21 0;
#X connect 46 0 47 0;
#X connect 47 0 45 1;
#X connect 48 0 49 0;
#X connect 49 0 21 0;
#X connect 51 0 29 0;
#X connect 53 0 51 0;
#X connect 54 0 53 0;
#X connect 55 0 51 0;
#X connect 56 0 240 0;
#X connect 57 0 240 0;
#X connect 59 0 45 0;
#X connect 60 0 58 0;
#X connect 61 0 51 0;
#X connect 62 0 64 1;
#X connect 63 0 64 2;
#X connect 64 0 88 0;
#X connect 65 0 62 0;
#X connect 66 0 63 0;
#X connect 67 0 62 0;
#X connect 68 0 63 0;
#X connect 69 0 62 0;
#X connect 70 0 63 0;
#X connect 71 0 62 0;
#X connect 72 0 63 0;
#X connect 73 0 62 0;
#X connect 74 0 63 0;
#X connect 75 0 62 0;
#X connect 76 0 63 0;
#X connect 77 0 80 1;
#X connect 78 0 77 0;
#X connect 81 0 60 0;
#X connect 81 0 59 0;
#X connect 82 0 81 2;
#X connect 83 0 51 0;
#X connect 84 0 51 0;
#X connect 85 0 51 0;
#X connect 85 0 151 0;
#X connect 87 0 51 0;
#X connect 88 0 4 0;
#X connect 89 0 62 0;
#X connect 90 0 63 0;
#X connect 91 0 64 0;
#X connect 92 0 91 1;
#X connect 93 0 91 1;
#X connect 94 0 210 1;
#X connect 94 0 236 1;
#X connect 95 0 209 1;
#X connect 95 0 235 1;
#X connect 98 1 94 0;
#X connect 98 2 95 0;
#X connect 98 3 96 0;
#X connect 98 4 97 0;
#X connect 99 0 240 0;
#X connect 100 0 99 0;
#X connect 101 0 99 1;
#X connect 102 0 51 0;
#X connect 103 0 51 0;
#X connect 104 0 93 0;
#X connect 105 0 93 0;
#X connect 106 0 109 0;
#X connect 107 0 109 1;
#X connect 108 0 109 2;
#X connect 109 0 14 1;
#X connect 110 0 109 3;
#X connect 111 0 106 0;
#X connect 111 0 107 0;
#X connect 111 0 108 0;
#X connect 111 0 110 0;
#X connect 112 0 110 0;
#X connect 113 0 110 0;
#X connect 114 0 110 0;
#X connect 115 0 110 0;
#X connect 115 0 247 0;
#X connect 116 0 111 0;
#X connect 117 0 121 0;
#X connect 121 0 51 0;
#X connect 127 0 121 0;
#X connect 128 0 121 0;
#X connect 129 0 127 0;
#X connect 130 0 128 0;
#X connect 131 0 121 0;
#X connect 139 0 121 0;
#X connect 140 0 121 0;
#X connect 141 0 121 0;
#X connect 142 0 121 0;
#X connect 147 0 148 2;
#X connect 148 0 81 0;
#X connect 149 0 148 1;
#X connect 150 0 147 0;
#X connect 152 0 147 0;
#X connect 153 0 147 0;
#X connect 154 0 153 0;
#X connect 155 0 154 0;
#X connect 156 0 155 1;
#X connect 157 0 155 0;
#X connect 158 0 149 0;
#X connect 159 0 158 0;
#X connect 160 0 159 0;
#X connect 161 0 160 1;
#X connect 162 0 160 0;
#X connect 163 0 157 0;
#X connect 164 0 162 0;
#X connect 165 0 157 0;
#X connect 166 0 169 0;
#X connect 167 0 168 0;
#X connect 168 0 164 0;
#X connect 168 1 165 0;
#X connect 168 2 176 0;
#X connect 169 0 175 0;
#X connect 169 1 179 0;
#X connect 169 2 180 0;
#X connect 170 0 17 0;
#X connect 171 0 170 0;
#X connect 172 0 171 0;
#X connect 173 0 172 1;
#X connect 174 0 172 0;
#X connect 175 0 174 0;
#X connect 176 0 174 0;
#X connect 177 0 162 0;
#X connect 178 0 149 0;
#X connect 179 0 162 0;
#X connect 180 0 157 0;
#X connect 181 0 183 0;
#X connect 181 0 185 0;
#X connect 184 0 196 0;
#X connect 184 0 197 0;
#X connect 185 0 192 0;
#X connect 185 1 194 0;
#X connect 186 0 198 0;
#X connect 187 0 110 0;
#X connect 188 0 187 0;
#X connect 189 0 188 0;
#X connect 190 0 189 1;
#X connect 191 0 190 0;
#X connect 192 0 189 0;
#X connect 193 0 191 0;
#X connect 194 0 167 0;
#X connect 194 1 166 0;
#X connect 195 0 192 0;
#X connect 196 0 161 0;
#X connect 197 0 156 0;
#X connect 198 0 173 0;
#X connect 199 0 200 0;
#X connect 200 0 167 0;
#X connect 200 1 166 0;
#X connect 201 0 202 0;
#X connect 202 0 203 0;
#X connect 203 0 54 0;
#X connect 204 0 93 0;
#X connect 205 0 63 0;
#X connect 206 0 62 0;
#X connect 207 0 5 0;
#X connect 208 0 51 0;
#X connect 209 0 210 0;
#X connect 210 0 16 0;
#X connect 211 0 259 0;
#X connect 212 0 217 0;
#X connect 213 0 218 1;
#X connect 214 0 218 2;
#X connect 215 0 213 0;
#X connect 215 0 235 0;
#X connect 216 0 215 0;
#X connect 217 0 218 0;
#X connect 219 0 212 0;
#X connect 221 0 219 0;
#X connect 222 0 221 1;
#X connect 223 0 224 0;
#X connect 224 0 219 0;
#X connect 226 0 221 0;
#X connect 227 0 225 0;
#X connect 228 0 227 0;
#X connect 228 0 226 0;
#X connect 229 0 228 2;
#X connect 230 0 231 2;
#X connect 231 0 228 0;
#X connect 232 0 231 1;
#X connect 233 0 230 0;
#X connect 234 0 230 0;
#X connect 235 0 236 0;
#X connect 236 0 214 0;
#X connect 237 0 261 0;
#X connect 238 0 148 0;
#X connect 239 0 231 0;
#X connect 240 0 51 0;
#X connect 241 0 17 0;
#X connect 242 0 17 0;
#X connect 243 0 246 0;
#X connect 244 0 246 1;
#X connect 245 0 246 2;
#X connect 246 0 212 1;
#X connect 247 0 253 0;
#X connect 248 0 243 0;
#X connect 248 0 244 0;
#X connect 248 0 245 0;
#X connect 248 0 247 0;
#X connect 249 0 247 0;
#X connect 250 0 247 0;
#X connect 251 0 247 0;
#X connect 252 0 248 0;
#X connect 253 0 246 3;
#X connect 254 0 232 0;
#X connect 255 0 215 0;
#X connect 256 0 81 3;
#X connect 257 0 258 0;
#X connect 258 0 222 0;
#X connect 259 0 149 0;
#X connect 260 0 215 0;
#X connect 261 0 232 0;
#X connect 262 0 264 0;
#X connect 262 0 263 0;
#X connect 263 0 110 0;
#X connect 264 0 247 0;
