#N canvas 487 292 1059 653 10;
#X obj 43 176 cnv 15 650 321 empty empty empty 20 12 0 14 -241657 -66577
0;
#X obj 0 -125 cnv 15 331 300 empty empty empty 20 12 0 14 -260460 -66577
0;
#X text 8 -122 Motion capture avec Blob;
#X obj 105 -102 loadbang;
#X obj 598 301 abs;
#X obj 598 273 spigot;
#X obj 629 255 tgl 15 0 empty empty Alph_Pack 0 -6 0 8 -257472 -1 -1
0 1;
#X obj 614 343 hsl 128 9 0 2 0 0 empty empty empty -2 -6 0 8 -257472
-1 -1 0 1;
#X floatatom 611 354 5 0 0 0 - - -;
#X obj 614 331 hsl 132 9 0 30 0 0 empty empty empty -2 -6 0 8 -244223
-1 -1 0 1;
#X obj 598 392 moses 1;
#X obj 332 -124 cnv 15 372 300 empty empty Num_Fram 20 12 0 14 -228992
-66577 0;
#X floatatom 105 79 5 0 0 0 - - -;
#X obj 73 20 tgl 15 0 empty empty empty 0 -6 0 8 -262144 -1 -1 0 1
;
#X obj 8 -51 bng 21 250 50 0 empty empty load 0 -6 0 8 -24198 -258699
-1;
#X obj 40 -10 tgl 19 0 empty empty empty 0 -6 0 8 -258699 -1 -1 0 1
;
#X text 29 -29 GEM O/F;
#N canvas 509 83 790 653 Lect_VIDEO_Auto_Tai_Alpha 0;
#X obj 64 4 tgl 15 0 empty empty empty 0 -6 0 8 -262144 -1 -1 0 1;
#X obj 82 188 pix_film;
#X msg 119 90 auto \$1;
#X msg 6 119 open \$1;
#X obj 6 100 openpanel;
#X obj 6 82 bng 15 250 50 0 empty empty empty 0 -6 0 8 -262144 -1 -1
;
#X obj 102 91 tgl 15 0 empty empty empty 0 -6 0 8 -262144 -1 -1 0 1
;
#X floatatom 125 110 5 0 0 0 - - -;
#X obj 103 241 unpack 0 0 0;
#X floatatom 103 263 5 0 0 3 length - -;
#X floatatom 136 263 5 0 0 3 width - -;
#X floatatom 170 263 5 0 0 3 height - -;
#X obj 181 220 bng 15 250 50 0 empty empty La_Fin 20 7 0 8 -262144
-1 -1;
#X floatatom 110 367 5 0 0 0 - - -;
#X obj 117 547 inlet;
#X obj 102 56 inlet;
#X msg 12 401 quality 0;
#X msg 12 419 quality 1;
#X obj 6 56 inlet;
#X obj 111 218 print;
#X obj 82 438 pix_texture;
#X obj 82 317 render_trigger;
#X obj 159 337 s post;
#X obj 147 360 s pre;
#X text 97 38 Auto O/F;
#X obj 103 296 outlet;
#X obj 289 299 outlet;
#X obj 81 517 alpha;
#X obj 63 518 tgl 15 0 empty empty empty 0 -6 0 8 -262144 -1 -1 1 1
;
#X obj 81 622 rectangle 4 3;
#X floatatom 117 603 5 0 0 0 - - -;
#X floatatom 153 604 5 0 0 0 - - -;
#X floatatom 117 568 5 0 0 0 - - -;
#X obj 165 564 * 3;
#X obj 153 587 / 4;
#X obj 81 541 color;
#X obj 63 474 loadbang;
#X obj 198 388 inlet;
#X obj 46 25 inlet;
#X obj 291 272 inlet;
#X obj 229 405 inlet;
#X obj 205 500 pack f f f f;
#X msg 205 524 \$1 \$2 \$3 \$4;
#X obj 184 377 vsl 8 50 0 1 0 0 empty empty empty 0 -8 0 8 -195568
-1 -1 0 1;
#X obj 183 448 t b f;
#X floatatom 184 430 5 0 0 0 - - -;
#X obj 205 471 unpack f f f f;
#X obj 282 421 outlet;
#X floatatom 140 475 5 0 0 0 - - -;
#X obj 82 4 gemhead 9;
#X obj 81 677 pix_write;
#X msg 230 714 sizeX sizeY;
#X msg 231 693 posX posY;
#X msg 236 629 auto \$1;
#X obj 233 600 tgl 15 0 empty empty empty 17 7 0 10 -262144 -1 -1 0
1;
#X obj 294 545 key;
#X floatatom 294 569 5 0 0 0 - - -;
#X msg 239 653 file /home/benjamin/SAADtest.jpg 99;
#X obj 294 590 select 80 79;
#X obj 107 645 bng 15 250 50 0 empty empty empty 17 7 0 10 -262144
-1 -1;
#X obj 20 372 s gemvid;
#X msg 237 57 open vidhavethe/cartoon.avi;
#X obj 193 141 t b b b;
#X msg 193 177 0;
#X msg 222 179 1;
#X obj 237 13 loadbang;
#X obj 259 92 route open;
#X obj 259 115 symbol;
#X obj 259 139 makefilename %s;
#X floatatom 285 180 5 0 0 1 contrast - -;
#X floatatom 352 199 5 0 0 0 saturation - -;
#X obj 234 218 pix_contrast;
#X msg 392 162 5;
#X msg 63 491 1;
#X obj 83 400 pix_gain;
#X floatatom 259 351 5 0 0 0 - - -;
#X msg 295 318 1;
#X msg 305 328 -1;
#X floatatom 414 301 5 0 0 2 contrast - -;
#X floatatom 449 327 5 0 0 2 saturation - -;
#X msg 567 284 128;
#X msg 568 310 400;
#X msg 601 284 10;
#X msg 635 284 6;
#X msg 636 310 37;
#X msg 668 284 3.62;
#X msg 688 307 0;
#X msg 705 284 1;
#X msg 706 310 1;
#X obj 414 204 vsl 12 80 -21 127 0 0 empty empty empty 0 -9 0 10 -128992
-262144 -1 0 1;
#X obj 449 203 vsl 12 80 0 127 0 0 empty empty empty 0 -9 0 10 -257985
-258113 -1 0 1;
#X floatatom 488 346 5 0 0 2 gain - -;
#X obj 488 206 vsl 12 80 0 127 0 0 empty empty empty 0 -9 0 10 -191407
-262144 -1 0 1;
#X obj 520 195 vsl 15 128 0 16 0 0 empty empty Modul_Visage_Laure 0
-9 0 10 -262144 -1 -1 0 1;
#X obj 704 355 tgl 20 0 empty empty empty 17 7 0 10 -262144 -1 -1 0
1;
#X obj 732 357 sel 0;
#X msg 734 328 -1;
#X msg 759 338 1;
#X msg 570 329 6;
#X msg 640 329 1;
#X msg 604 329 1.62;
#X msg 667 329 -5.3;
#X msg 705 329 1;
#X msg 602 310 3;
#X msg 537 284 1;
#X msg 538 310 0;
#X obj 502 441 vsl 21 80 0 1 0 0 empty ctl4 empty 0 -8 0 8 -195568
-1 -1 0 1;
#X obj 20 652 s gemhhh;
#X obj 15 339 translateXYZ;
#X floatatom 45 270 5 0 0 0 - - -;
#X connect 0 0 49 0;
#X connect 1 0 71 0;
#X connect 1 1 8 0;
#X connect 1 2 12 0;
#X connect 1 2 62 0;
#X connect 2 0 1 0;
#X connect 3 0 1 0;
#X connect 4 0 3 0;
#X connect 4 0 47 0;
#X connect 5 0 4 0;
#X connect 6 0 2 0;
#X connect 7 0 1 1;
#X connect 8 0 9 0;
#X connect 8 1 10 0;
#X connect 8 2 11 0;
#X connect 9 0 25 0;
#X connect 12 0 26 0;
#X connect 14 0 32 0;
#X connect 15 0 6 0;
#X connect 16 0 20 0;
#X connect 17 0 20 0;
#X connect 18 0 5 0;
#X connect 20 0 27 0;
#X connect 21 0 108 0;
#X connect 21 1 23 0;
#X connect 21 2 22 0;
#X connect 27 0 35 0;
#X connect 28 0 27 0;
#X connect 29 0 107 0;
#X connect 30 0 29 1;
#X connect 31 0 29 2;
#X connect 32 0 33 0;
#X connect 32 0 30 0;
#X connect 33 0 34 0;
#X connect 34 0 31 0;
#X connect 35 0 29 0;
#X connect 36 0 73 0;
#X connect 37 0 44 0;
#X connect 38 0 0 0;
#X connect 39 0 1 1;
#X connect 40 0 35 1;
#X connect 40 0 46 0;
#X connect 41 0 42 0;
#X connect 42 0 35 1;
#X connect 43 0 44 0;
#X connect 43 0 45 0;
#X connect 44 0 41 0;
#X connect 44 1 41 3;
#X connect 46 0 41 0;
#X connect 46 1 41 1;
#X connect 46 2 41 2;
#X connect 46 3 41 3;
#X connect 49 0 1 0;
#X connect 51 0 50 2;
#X connect 52 0 50 1;
#X connect 53 0 50 0;
#X connect 54 0 53 0;
#X connect 55 0 56 0;
#X connect 57 0 50 0;
#X connect 58 0 59 0;
#X connect 59 0 50 0;
#X connect 61 0 1 0;
#X connect 61 0 66 0;
#X connect 62 0 64 0;
#X connect 62 2 63 0;
#X connect 63 0 1 1;
#X connect 63 0 6 0;
#X connect 64 0 6 0;
#X connect 66 0 67 0;
#X connect 67 0 68 0;
#X connect 68 0 47 0;
#X connect 69 0 71 1;
#X connect 70 0 71 2;
#X connect 71 0 21 0;
#X connect 72 0 70 0;
#X connect 73 0 28 0;
#X connect 74 0 20 0;
#X connect 75 0 74 1;
#X connect 76 0 75 0;
#X connect 77 0 75 0;
#X connect 78 0 69 0;
#X connect 79 0 70 0;
#X connect 80 0 78 0;
#X connect 81 0 79 0;
#X connect 82 0 78 0;
#X connect 83 0 78 0;
#X connect 84 0 79 0;
#X connect 85 0 78 0;
#X connect 86 0 79 0;
#X connect 87 0 78 0;
#X connect 88 0 79 0;
#X connect 89 0 78 0;
#X connect 90 0 79 0;
#X connect 91 0 75 0;
#X connect 92 0 91 0;
#X connect 93 0 79 0;
#X connect 94 0 95 0;
#X connect 95 0 96 0;
#X connect 95 1 97 0;
#X connect 96 0 91 0;
#X connect 97 0 91 0;
#X connect 98 0 91 0;
#X connect 99 0 91 0;
#X connect 100 0 91 0;
#X connect 101 0 91 0;
#X connect 102 0 91 0;
#X connect 103 0 79 0;
#X connect 104 0 78 0;
#X connect 105 0 79 0;
#X connect 108 0 74 0;
#X connect 109 0 108 1;
#X restore 8 135 pd Lect_VIDEO_Auto_Tai_Alpha;
#X obj 138 -52 vsl 8 50 0 1 0 0 empty empty empty 0 -8 0 8 -195568
-1 -1 0 1;
#X floatatom 138 1 5 0 0 0 - - -;
#X obj 158 49 vsl 8 50 0 1 0 0 empty empty empty 0 -8 0 8 -258699 -1
-1 4900 1;
#X obj 165 49 vsl 8 50 0 1 0 0 empty empty empty 0 -8 0 8 -24198 -1
-1 4900 1;
#X obj 173 49 vsl 8 50 0 1 0 0 empty empty empty 0 -8 0 8 -355 -1 -1
4900 1;
#N canvas 0 50 460 310 color 0;
#X obj 44 212 pack f f f f;
#X msg 44 236 \$1 \$2 \$3 \$4;
#X obj 26 145 bng 15 250 50 0 empty empty empty 0 -6 0 8 -262144 -1
-1;
#X obj 41 144 t b f;
#X obj 41 35 vsl 8 50 0 1 0 0 empty empty empty 0 -8 0 8 -258699 -1
-1 4900 1;
#X obj 49 35 vsl 8 50 0 1 0 0 empty empty empty 0 -8 0 8 -24198 -1
-1 4900 1;
#X obj 57 35 vsl 8 50 0 1 0 0 empty empty empty 0 -8 0 8 -355 -1 -1
4900 1;
#X obj 65 35 vsl 8 50 0 1 0 0 empty empty empty 0 -8 0 8 -195568 -1
-1 4900 1;
#X obj 63 167 t b f;
#X obj 86 189 t b f;
#X floatatom 77 86 5 0 0 0 - - -;
#X floatatom 67 101 5 0 0 0 - - -;
#X floatatom 53 115 5 0 0 0 - - -;
#X floatatom 35 129 5 0 0 0 - - -;
#X obj 17 7 inlet;
#X obj 52 7 inlet;
#X obj 87 7 inlet;
#X obj 122 8 inlet;
#X obj 44 261 outlet;
#X connect 0 0 1 0;
#X connect 1 0 18 0;
#X connect 2 0 0 0;
#X connect 3 0 0 0;
#X connect 3 1 0 1;
#X connect 4 0 0 0;
#X connect 4 0 13 0;
#X connect 5 0 3 0;
#X connect 5 0 12 0;
#X connect 6 0 8 0;
#X connect 6 0 11 0;
#X connect 7 0 9 0;
#X connect 7 0 10 0;
#X connect 8 0 0 0;
#X connect 8 1 0 2;
#X connect 9 0 0 0;
#X connect 9 1 0 3;
#X connect 14 0 4 0;
#X connect 15 0 5 0;
#X connect 16 0 6 0;
#X connect 17 0 7 0;
#X restore 148 109 pd color;
#X text 80 45 taill aff;
#X obj 181 49 vsl 8 50 0 1 0 0 empty empty empty 0 -8 0 8 -195568 -1
-1 4900 1;
#X msg 191 -27 1;
#X obj 418 -66 abs;
#X obj 418 -94 spigot;
#X obj 449 -112 tgl 15 0 empty empty Add_Num_Fram 0 -6 0 8 -225271
-1 -1 0 1;
#X obj 535 104 * 1;
#X obj 551 77 hsl 128 9 0 2 0 0 empty empty empty -2 -6 0 8 -225271
-1 -1 0 1;
#X floatatom 548 88 5 0 0 0 - - -;
#X obj 551 65 hsl 132 9 0 30 0 0 empty empty empty -2 -6 0 8 -93975
-1 -1 0 1;
#X obj 535 126 moses 1;
#X floatatom 209 133 5 0 0 0 - - -;
#X obj 209 153 moses 1;
#X obj 535 40 * 1;
#X obj 418 -20 average 10;
#X floatatom 447 -38 5 0 0 0 - - -;
#X obj 437 54 f;
#X obj 418 53 +;
#X obj 418 31 t f b;
#X floatatom 469 159 10 0 0 0 - - -;
#X floatatom 8 178 5 0 0 0 - - -;
#X obj 448 273 spigot;
#X obj 479 255 tgl 15 0 empty empty Alph_Env 0 -6 0 8 -257472 -1 -1
0 1;
#X obj 464 343 hsl 128 9 0 2 0 0 empty empty empty -2 -6 0 8 -257472
-1 -1 0 1;
#X floatatom 461 354 5 0 0 0 - - -;
#X obj 464 331 hsl 132 9 0 30 0 0 empty empty empty -2 -6 0 8 -244223
-1 -1 0 1;
#X obj 448 413 moses 1;
#X obj 598 370 * 1;
#X obj 448 307 - 70;
#X obj 448 391 moses 0;
#X obj 448 223 average 21;
#X floatatom 467 292 5 0 0 0 - - -;
#X obj 475 307 expr (100-$f1);
#X obj 535 -64 abs;
#X obj 535 -92 spigot;
#X obj 566 -110 tgl 15 0 empty empty NumFram 0 -6 0 8 -225271 -1 -1
0 1;
#X obj 535 -18 average 10;
#X floatatom 590 -38 5 0 0 0 - - -;
#X text 60 6 Auto O/F;
#X obj 418 95 moses 1;
#X obj 455 115 change;
#X msg 455 136 0;
#X obj 418 3 moses 0.5;
#X obj 535 15 speedlim 40;
#X floatatom 594 -2 5 0 0 0 - - -;
#X obj 495 -110 invert;
#X obj 605 15 + 40;
#X obj 448 370 / 30;
#X obj 49 274 vsl 8 50 0 1 0 0 empty empty empty 0 -8 0 8 -195568 -1
-1 0 1;
#X floatatom 49 327 5 0 0 0 - - -;
#X obj 49 252 tgl 15 0 empty empty Alpha_01 0 -6 0 8 -257472 -1 -1
0 1;
#X obj 332 252 tgl 15 0 empty empty Alpha_Rand 0 -6 0 8 -257472 -1
-1 0 1;
#X obj 332 283 metro 120;
#X obj 332 322 random 100;
#X obj 332 383 + 0;
#X obj 332 413 / 100;
#X obj 359 342 expr (100-$f1);
#X floatatom 387 304 5 0 0 0 - - -;
#X floatatom 359 361 5 0 0 0 - - -;
#X floatatom 379 266 5 0 0 0 - - -;
#X floatatom 503 187 5 0 0 0 - - -;
#X obj 503 203 + 20;
#X floatatom 491 21 5 0 0 0 - - -;
#X obj 491 -85 vsl 8 100 0 1 0 0 empty empty empty 0 -8 0 8 -225271
-1 -1 0 1;
#X obj 249 251 tgl 15 0 empty empty Alpha_Subli 0 -6 0 8 -257472 -1
-1 0 1;
#X obj 175 223 r post;
#X obj 218 223 r pre;
#X obj 218 306 f;
#X obj 244 305 + 1;
#X obj 218 350 change;
#X msg 190 306 0;
#X floatatom 250 330 5 0 0 0 - - -;
#X floatatom 170 351 5 0 0 0 - - -;
#X obj 218 329 > 24;
#X obj 218 371 t b b;
#X msg 243 441 1;
#X obj 179 418 delay 0;
#X msg 179 440 0;
#X floatatom 216 399 5 0 0 0 - - -;
#X obj 218 273 spigot;
#X obj 234 14 loadbang;
#X msg 501 -79 0.02;
#X obj 714 176 abs;
#X obj 714 236 * 1;
#X obj 730 209 hsl 128 9 0 2 0 0 empty empty empty -2 -6 0 8 -257472
-1 -1 0 1;
#X floatatom 727 220 5 0 0 0 - - -;
#X obj 730 197 hsl 132 9 0 30 0 0 empty empty empty -2 -6 0 8 -244223
-1 -1 0 1;
#X obj 714 288 moses 1;
#X obj 769 245 tgl 15 0 empty empty empty 0 -6 0 8 -261689 -1 -1 0
1;
#N canvas 0 50 470 320 expr1_2 0;
#X obj 36 96 spigot;
#X obj 67 81 tgl 15 0 empty empty Inv 0 -6 0 8 -195568 -1 -1 1 1;
#X obj 116 95 spigot;
#X obj 146 80 tgl 15 0 empty empty Inv 0 -6 0 8 -195568 -1 -1 0 1;
#X obj 145 44 invert;
#X obj 40 45 loadbang;
#X msg 40 64 1;
#X obj 37 10 inlet;
#X obj 77 20 inlet;
#X obj 74 216 outlet;
#X obj 116 140 expr (1-$f1);
#X connect 0 0 9 0;
#X connect 1 0 0 1;
#X connect 1 0 4 0;
#X connect 2 0 10 0;
#X connect 3 0 2 1;
#X connect 4 0 3 0;
#X connect 5 0 6 0;
#X connect 6 0 1 0;
#X connect 7 0 0 0;
#X connect 7 0 2 0;
#X connect 8 0 1 0;
#X connect 10 0 9 0;
#X restore 714 265 pd expr1_2;
#X obj 714 90 spigot;
#X obj 697 -68 spigot;
#X obj 744 -123 r v_miG;
#X obj 792 -123 r v_hiG;
#X floatatom 726 12 5 0 0 0 - - -;
#X obj 729 -4 hsl 128 15 0 127 0 0 empty empty empty -2 -6 0 8 -225271
-1 -1 0 1;
#X obj 727 -40 r ib;
#X text 755 -28 diviser bonk;
#X obj 714 31 r f1;
#X floatatom 726 56 3 0 0 0 - - -;
#X obj 714 70 / 99;
#X msg 727 -23 99;
#X obj 697 -123 r v_loG;
#X obj 748 73 tgl 15 0 empty empty ~_ 0 -6 0 8 -259674 -1 -1 0 1;
#X obj 765 92 spigot;
#X floatatom 777 58 3 0 0 0 - - -;
#X obj 765 72 / 99;
#X obj 799 75 tgl 15 0 empty empty ~_ 0 -6 0 8 -259674 -1 -1 0 1;
#X obj 817 94 spigot;
#X floatatom 829 60 5 0 0 0 - - -;
#X obj 817 74 / 99;
#X obj 851 77 tgl 15 0 empty empty ~_ 0 -6 0 8 -259674 -1 -1 0 1;
#X obj 870 96 spigot;
#X floatatom 882 62 3 0 0 0 - - -;
#X obj 870 76 / 99;
#X obj 904 79 tgl 15 0 empty empty ~_ 0 -6 0 8 -259674 -1 -1 0 1;
#X obj 921 98 spigot;
#X floatatom 933 64 3 0 0 0 - - -;
#X obj 921 78 / 99;
#X obj 955 81 tgl 15 0 empty empty ~_ 0 -6 0 8 -259674 -1 -1 0 1;
#X obj 973 100 spigot;
#X floatatom 985 66 3 0 0 0 - - -;
#X obj 973 80 / 99;
#X obj 1007 83 tgl 15 0 empty empty ~_ 0 -6 0 8 -259674 -1 -1 0 1;
#X obj 765 33 r f3;
#X obj 817 35 r f5;
#X obj 870 37 r f7;
#X obj 921 39 r f9;
#X obj 973 41 r f11;
#X obj 728 -86 tgl 15 0 empty empty ~_Pack 0 -6 0 8 -258699 -1 -1 0
1;
#X obj 744 -68 spigot;
#X obj 775 -86 tgl 15 0 empty empty ~_Pack 0 -6 0 8 -258699 -1 -1 0
1;
#X obj 792 -69 spigot;
#X obj 823 -87 tgl 15 0 empty empty ~_Pack 0 -6 0 8 -258699 -1 -1 0
1;
#X obj 697 -43 f;
#X obj 714 117 f;
#X obj 714 153 f;
#X obj 448 198 r envAn;
#X obj 192 -107 cnv 15 100 60 empty empty Vid_01 20 12 0 14 -262131
-66577 0;
#X obj 138 17 r \$0-Val_Alpha;
#X obj 190 522 s \$0-Val_Alpha;
#X obj 49 440 s \$0-Val_Alpha;
#X obj 332 439 s \$0-Val_Alpha;
#X obj 448 440 s \$0-Val_Alpha;
#X obj 598 423 s \$0-Val_Alpha;
#X obj 418 123 f;
#X text 366 125 INT ???;
#X symbolatom 74 181 52 0 0 0 - - -;
#X obj 40 -55 inlet;
#X obj 8 -90 inlet;
#X obj 171 197 outlet;
#X obj 214 110 r \$0-nframe;
#X obj 246 131 r \$0-numframeToT;
#X obj 8 155 s \$0-numframeToT;
#X obj 73 -19 inlet;
#X obj 436 78 r \$0-numframeToT;
#X obj 559 40 r \$0-numframeToT;
#X obj 572 106 r \$0-numframeToT;
#X obj 630 218 inlet;
#X obj 743 176 inlet;
#X obj 848 -124 inlet;
#X obj 387 158 s \$0-nframe;
#X obj 535 157 s \$0-nframe;
#X obj 136 -76 inlet;
#X obj 815 228 r ib1;
#X obj 630 -146 r ctl100;
#X obj 630 -84 * 127;
#X obj 630 -63 int;
#X obj 689 -145 r \$0-numframeToT;
#X obj 630 -21 s \$0-nframe;
#X floatatom 642 -41 5 0 0 0 - - -;
#X floatatom 610 159 10 0 0 0 - - -;
#X obj 232 30 key;
#X floatatom 232 54 5 0 0 0 - - -;
#X obj 232 75 select 77;
#X obj 209 90 f;
#X obj 240 90 + 1;
#X obj 212 69 bng 15 250 50 0 empty empty empty 17 7 0 10 -262144 -1
-1;
#X floatatom 598 196 5 0 0 0 - - -;
#X msg 817 167 5.267;
#X msg 867 0 297;
#X msg 105 62 6.6;
#X obj 274 202 r vidnframe;
#X obj 11 33 r vidnframeauto;
#X connect 3 0 205 0;
#X connect 4 0 51 0;
#X connect 5 0 4 0;
#X connect 6 0 5 1;
#X connect 7 0 8 0;
#X connect 8 0 51 1;
#X connect 9 0 8 0;
#X connect 10 0 168 0;
#X connect 12 0 17 3;
#X connect 13 0 17 2;
#X connect 14 0 17 0;
#X connect 15 0 17 1;
#X connect 17 0 44 0;
#X connect 17 0 177 0;
#X connect 17 1 171 0;
#X connect 17 1 174 0;
#X connect 18 0 19 0;
#X connect 19 0 17 4;
#X connect 20 0 23 0;
#X connect 21 0 23 1;
#X connect 22 0 23 2;
#X connect 23 0 17 5;
#X connect 25 0 23 3;
#X connect 26 0 20 0;
#X connect 26 0 21 0;
#X connect 26 0 22 0;
#X connect 26 0 25 0;
#X connect 27 0 38 0;
#X connect 28 0 27 0;
#X connect 29 0 28 1;
#X connect 30 0 34 0;
#X connect 31 0 32 0;
#X connect 32 0 30 1;
#X connect 33 0 32 0;
#X connect 34 0 186 0;
#X connect 34 0 195 0;
#X connect 34 0 202 0;
#X connect 35 0 36 0;
#X connect 35 0 200 0;
#X connect 36 0 17 6;
#X connect 37 0 30 0;
#X connect 38 0 66 0;
#X connect 39 0 38 1;
#X connect 40 0 41 1;
#X connect 41 0 40 1;
#X connect 41 0 63 0;
#X connect 42 0 41 0;
#X connect 42 1 40 0;
#X connect 45 0 52 0;
#X connect 46 0 45 1;
#X connect 47 0 48 0;
#X connect 48 0 71 1;
#X connect 49 0 48 0;
#X connect 50 0 167 0;
#X connect 51 0 10 0;
#X connect 52 0 71 0;
#X connect 53 1 50 0;
#X connect 54 0 45 0;
#X connect 55 0 52 1;
#X connect 55 0 56 0;
#X connect 56 0 48 0;
#X connect 57 0 60 0;
#X connect 58 0 57 0;
#X connect 59 0 58 1;
#X connect 60 0 67 0;
#X connect 61 0 60 1;
#X connect 63 0 169 0;
#X connect 63 1 64 0;
#X connect 64 0 65 0;
#X connect 65 0 40 1;
#X connect 66 1 42 0;
#X connect 67 0 37 0;
#X connect 68 0 70 0;
#X connect 69 0 59 0;
#X connect 70 0 67 1;
#X connect 71 0 53 0;
#X connect 72 0 73 0;
#X connect 73 0 165 0;
#X connect 74 0 72 0;
#X connect 75 0 76 0;
#X connect 76 0 77 0;
#X connect 77 0 78 0;
#X connect 78 0 79 0;
#X connect 79 0 166 0;
#X connect 80 0 82 0;
#X connect 81 0 77 1;
#X connect 81 0 80 0;
#X connect 82 0 78 1;
#X connect 83 0 76 1;
#X connect 84 0 85 0;
#X connect 85 0 54 1;
#X connect 86 0 66 1;
#X connect 87 0 86 0;
#X connect 88 0 103 1;
#X connect 90 0 103 0;
#X connect 91 0 92 0;
#X connect 91 0 97 0;
#X connect 92 0 91 1;
#X connect 93 0 98 0;
#X connect 94 0 91 0;
#X connect 95 0 97 1;
#X connect 97 0 93 0;
#X connect 98 0 94 0;
#X connect 98 0 100 0;
#X connect 98 1 99 0;
#X connect 99 0 164 0;
#X connect 100 0 101 0;
#X connect 101 0 164 0;
#X connect 102 0 100 1;
#X connect 103 0 91 0;
#X connect 104 0 26 0;
#X connect 105 0 87 0;
#X connect 106 0 107 0;
#X connect 107 0 113 0;
#X connect 108 0 109 0;
#X connect 109 0 107 1;
#X connect 110 0 109 0;
#X connect 111 0 5 0;
#X connect 112 0 113 1;
#X connect 113 0 111 0;
#X connect 114 0 159 0;
#X connect 115 0 158 0;
#X connect 116 0 154 0;
#X connect 117 0 156 0;
#X connect 118 0 123 0;
#X connect 118 0 129 0;
#X connect 118 0 133 0;
#X connect 118 0 137 0;
#X connect 118 0 141 0;
#X connect 118 0 145 0;
#X connect 119 0 118 0;
#X connect 120 0 125 0;
#X connect 122 0 124 0;
#X connect 123 0 124 1;
#X connect 124 0 114 0;
#X connect 125 0 119 0;
#X connect 126 0 115 0;
#X connect 127 0 114 1;
#X connect 128 0 159 0;
#X connect 129 0 130 1;
#X connect 130 0 128 0;
#X connect 131 0 128 1;
#X connect 132 0 159 0;
#X connect 133 0 134 1;
#X connect 134 0 132 0;
#X connect 135 0 132 1;
#X connect 136 0 159 0;
#X connect 137 0 138 1;
#X connect 138 0 136 0;
#X connect 139 0 136 1;
#X connect 140 0 159 0;
#X connect 141 0 142 1;
#X connect 142 0 140 0;
#X connect 143 0 140 1;
#X connect 144 0 159 0;
#X connect 145 0 146 1;
#X connect 146 0 144 0;
#X connect 147 0 144 1;
#X connect 148 0 130 0;
#X connect 149 0 134 0;
#X connect 150 0 138 0;
#X connect 151 0 142 0;
#X connect 152 0 146 0;
#X connect 153 0 115 1;
#X connect 154 0 158 0;
#X connect 155 0 154 1;
#X connect 156 0 158 0;
#X connect 157 0 156 1;
#X connect 158 0 160 0;
#X connect 159 0 160 0;
#X connect 160 0 106 0;
#X connect 160 0 58 0;
#X connect 160 0 28 0;
#X connect 161 0 54 0;
#X connect 163 0 17 4;
#X connect 169 0 43 0;
#X connect 169 0 185 0;
#X connect 172 0 15 0;
#X connect 173 0 14 0;
#X connect 175 0 17 6;
#X connect 176 0 36 1;
#X connect 178 0 13 0;
#X connect 179 0 63 1;
#X connect 180 0 37 1;
#X connect 181 0 34 1;
#X connect 182 0 6 0;
#X connect 183 0 110 0;
#X connect 184 0 153 0;
#X connect 187 0 18 0;
#X connect 188 0 112 0;
#X connect 189 0 190 0;
#X connect 190 0 191 0;
#X connect 191 0 193 0;
#X connect 191 0 194 0;
#X connect 192 0 190 1;
#X connect 196 0 197 0;
#X connect 197 0 198 0;
#X connect 198 0 201 0;
#X connect 199 0 35 0;
#X connect 200 0 199 1;
#X connect 201 0 199 0;
#X connect 203 0 110 0;
#X connect 204 0 133 0;
#X connect 205 0 12 0;
#X connect 206 0 17 6;
#X connect 207 0 13 0;
