#N canvas 661 87 836 653 10;
#X obj 514 79 gemhead;
#X obj 586 356 pack 0 0;
#X obj 607 336 t b f;
#X msg 586 379 link \$1 \$2;
#X floatatom 607 317 2 0 0 0 ID - -, f 2;
#X floatatom 586 216 2 0 0 0 ID - -, f 2;
#X obj 604 400 print linking;
#X obj 514 490 pix_texture;
#X obj 550 128 bng 15 250 50 0 empty empty empty 17 7 0 10 -262144
-1 -1;
#X obj 68 210 gemhead 1;
#X obj 38 321 gemframebuffer;
#X obj 38 549 pix_texture;
#X obj 38 346 translateXYZ 0 0 -4;
#X obj 514 271 glsl_fragment;
#X obj 514 174 glsl_vertex;
#X obj 586 193 change;
#X obj 607 291 change;
#X obj 514 429 glsl_program;
#X floatatom 552 515 5 0 0 0 - - -, f 5;
#X obj 59 241 loadbang;
#X obj 54 479 loadbang;
#X msg 530 466 quality 0;
#N canvas 703 231 450 300 load_glsl 0;
#X obj 51 22 gemhead;
#X obj 51 98 outlet;
#X obj 51 50 route gem_state;
#X obj 51 74 route 1;
#X connect 0 0 2 0;
#X connect 2 0 3 0;
#X connect 3 0 1 0;
#X restore 550 103 pd load_glsl;
#X msg 59 265 mode 0 \, type BYTE \, format RGB32 \, dim 1024 1024
;
#X msg 396 353 draw line;
#X msg 396 372 draw point;
#X floatatom 169 148 5 0 0 0 - - -, f 5;
#X msg 396 334 draw default;
#X msg 272 415 grid \$1;
#X floatatom 112 148 5 0 0 0 - - -, f 5;
#X floatatom 113 171 5 0 0 0 - - -, f 5;
#X msg 277 457 gridX \$1;
#X floatatom 168 170 5 0 0 0 - - -, f 5;
#X msg 346 457 gridY \$1;
#X obj 272 484 t a;
#X obj 396 393 t a;
#X obj 514 535 rotateXYZ 0 0 0;
#X obj 443 236 loadbang;
#X msg 498 377 seed \$1;
#X floatatom 222 164 5 0 0 0 - - -, f 5;
#X msg 65 524 quality 1;
#X msg 54 503 mode 1;
#X floatatom 265 162 5 0 0 0 - - -, f 5;
#X msg 668 482 K \$1;
#X obj 673 461 * 0.1;
#X text 109 127 grid;
#X text 101 170 X;
#X text 153 170 Y;
#X text 143 146 size;
#X text 207 104 line;
#X text 234 104 file;
#X text 264 103 point;
#X text 220 146 var Z;
#X text 259 146 var X;
#X obj 216 122 bng 15 250 50 0 empty empty empty 17 7 0 10 -262144
-1 -1;
#X obj 244 121 bng 15 250 50 0 empty empty empty 17 7 0 10 -262144
-1 -1;
#X obj 269 121 bng 15 250 50 0 empty empty empty 17 7 0 10 -262144
-1 -1;
#X obj 38 412 pix_contrast;
#X floatatom 317 163 5 0 0 0 - - -, f 5;
#X floatatom 357 162 5 0 0 0 - - -, f 5;
#X text 310 146 contr;
#X text 355 144 satur;
#X obj 317 16 loadbang;
#X obj 514 561 scaleXYZ 4 4 1;
#X floatatom 159 438 5 0 0 0 - - -, f 5;
#X obj 361 195 * 1;
#X obj 402 192 * 1;
#X msg 317 54 1;
#X obj 38 34 inlet;
#X obj 317 80 inlet;
#X obj 357 79 inlet;
#X obj 107 1 env~;
#X floatatom 252 50 5 0 0 0 - - -, f 5;
#X floatatom 73 60 5 0 0 0 - - -, f 5;
#X obj 153 10 tgl 19 0 empty empty Drive_contrast_sound 0 -6 0 8 -24198
-261689 -1 0 1;
#X obj 107 29 spigot;
#X obj 107 -45 adc~ 1;
#X floatatom 132 50 5 0 0 0 - - -, f 5;
#X floatatom 170 50 5 0 0 0 - - -, f 5;
#X floatatom 210 52 5 0 0 0 - - -, f 5;
#X obj 153 -43 inlet;
#X obj 300 118 tgl 19 0 empty empty Drive_contrast_sound 0 -6 0 8 -24198
-261689 -1 0 1;
#X obj 199 23 inlet;
#X obj 514 50 tgl 21 0 empty empty GEM 0 -6 0 7 -258699 -24198 -1 1
1;
#X obj 514 6 inlet;
#X obj 38 574 rectangle 5.334 4;
#X msg 98 501 mode O;
#X obj 514 588 mesh_square 200;
#X msg 527 152 open fetching.vert;
#X msg 524 241 open fetching.frag;
#X msg 222 193 1;
#X obj 206 163 bng 15 250 50 0 empty empty empty 17 7 0 10 -262144
-1 -1;
#X obj 258 195 loadbang;
#X obj 393 278 inlet;
#X obj 451 272 inlet;
#X obj 393 303 sel 1 2 3;
#X msg 162 522 quality 0;
#X msg 533 448 quality 1;
#X obj 108 -21 hip~ 20;
#X obj 139 218 r xgrid;
#X obj 188 218 r ygrid;
#X obj 107 76 maxlib/scale 50 100 -1 -3;
#X floatatom 179 554 5 0 0 0 - - -, f 5;
#X obj 49 109 loadbang;
#X msg 52 136 140;
#X connect 0 0 14 0;
#X connect 1 0 3 0;
#X connect 2 0 1 0;
#X connect 2 1 1 1;
#X connect 3 0 6 0;
#X connect 3 0 17 0;
#X connect 4 0 2 0;
#X connect 5 0 1 0;
#X connect 7 0 36 0;
#X connect 8 0 88 0;
#X connect 8 0 89 0;
#X connect 10 0 12 0;
#X connect 10 1 7 1;
#X connect 11 0 85 0;
#X connect 12 0 57 0;
#X connect 13 0 17 0;
#X connect 13 1 16 0;
#X connect 14 0 13 0;
#X connect 14 1 15 0;
#X connect 15 0 5 0;
#X connect 16 0 4 0;
#X connect 17 0 7 0;
#X connect 18 0 36 1;
#X connect 19 0 23 0;
#X connect 20 0 41 0;
#X connect 20 0 40 0;
#X connect 21 0 7 0;
#X connect 22 0 8 0;
#X connect 23 0 10 0;
#X connect 24 0 35 0;
#X connect 25 0 35 0;
#X connect 26 0 87 1;
#X connect 27 0 35 0;
#X connect 28 0 34 0;
#X connect 29 0 28 0;
#X connect 30 0 31 0;
#X connect 31 0 34 0;
#X connect 32 0 33 0;
#X connect 33 0 34 0;
#X connect 34 0 87 0;
#X connect 35 0 87 0;
#X connect 36 0 63 0;
#X connect 37 0 24 0;
#X connect 38 0 17 0;
#X connect 39 0 38 0;
#X connect 40 0 11 0;
#X connect 41 0 11 0;
#X connect 42 0 44 0;
#X connect 43 0 17 0;
#X connect 44 0 43 0;
#X connect 54 0 24 0;
#X connect 55 0 27 0;
#X connect 56 0 25 0;
#X connect 57 0 11 0;
#X connect 58 0 65 0;
#X connect 59 0 66 0;
#X connect 62 0 67 0;
#X connect 63 0 87 0;
#X connect 64 0 12 2;
#X connect 65 0 57 1;
#X connect 66 0 57 2;
#X connect 67 0 58 0;
#X connect 67 0 59 0;
#X connect 68 0 10 0;
#X connect 69 0 58 0;
#X connect 70 0 59 0;
#X connect 71 0 75 0;
#X connect 72 0 101 4;
#X connect 74 0 75 1;
#X connect 75 0 73 0;
#X connect 75 0 101 0;
#X connect 76 0 98 0;
#X connect 77 0 101 1;
#X connect 78 0 101 2;
#X connect 79 0 101 3;
#X connect 80 0 81 0;
#X connect 81 0 74 0;
#X connect 82 0 29 0;
#X connect 83 0 0 0;
#X connect 84 0 83 0;
#X connect 86 0 11 0;
#X connect 88 0 14 0;
#X connect 89 0 13 0;
#X connect 90 0 39 0;
#X connect 91 0 90 0;
#X connect 92 0 90 0;
#X connect 93 0 95 0;
#X connect 94 0 39 0;
#X connect 95 0 54 0;
#X connect 95 1 55 0;
#X connect 95 2 56 0;
#X connect 96 0 11 1;
#X connect 97 0 7 0;
#X connect 98 0 71 0;
#X connect 99 0 30 0;
#X connect 100 0 32 0;
#X connect 101 0 39 0;
#X connect 102 0 85 2;
#X connect 103 0 104 0;
#X connect 104 0 29 0;
#X coords 0 -1 1 1 300 90 1 100 100;
