#N canvas 8 286 1426 582 10;
#N canvas 6 73 840 829 GestionEcran 0;
#X msg 128 538 frame \$1;
#X floatatom 128 516 5 0 0 0 - - -, f 5;
#N canvas 738 87 626 653 GemWin_Benj 0;
#X msg 75 111 create \, 1;
#X msg 61 54 stereo 2;
#X msg 53 34 border 0;
#X msg -35 95 dimen 800 600;
#X msg -35 112 offset 0 0;
#X msg -35 130 dimen 400 300;
#X msg -35 148 fullscreen 1;
#X msg -35 77 offset 1024 0;
#X msg -35 166 fullscreen 0;
#X obj -32 49 hsl 60 8 0 127 0 0 empty empty empty -2 -6 0 8 -262144
-1 -1 0 1;
#X obj -32 56 hsl 60 8 0 127 0 0 empty empty empty -2 -6 0 8 -262144
-1 -1 0 1;
#X obj -32 64 hsl 60 8 1 127 0 0 empty empty empty -2 -6 0 8 -262144
-1 -1 0 1;
#X msg -35 184 lighting 1;
#X msg -35 201 lighting 0;
#X msg -24 10 127;
#X msg -36 215 dimen 200 150;
#X floatatom 30 62 5 0 0 0 - - -, f 5;
#X msg -35 235 cursor 0;
#X msg -35 253 cursor 1;
#X msg 62 77 stereo 0;
#X obj 53 9 loadbang;
#X msg 74 132 destroy \, 0;
#X msg 55 151 dimen 1024 768;
#X msg 11 28 28;
#X msg -35 272 dimen 1024 768;
#X obj 126 11 inlet;
#X obj 237 13 inlet;
#X obj 182 145 tgl 15 0 empty empty on_off_reperes 0 -6 0 8 -262144
-262144 -262144 0 1;
#X msg 2 5 1;
#X obj 150 77 key;
#X obj 150 117 bng 15 250 50 0 empty empty empty 0 -6 0 8 -262144 -1
-1;
#X obj 150 97 select 81;
#X obj 278 94 vsl 8 50 0 1 0 0 empty empty empty 0 -8 0 8 -258699 -1
-1 0 1;
#X obj 286 94 vsl 8 50 0 1 0 0 empty empty empty 0 -8 0 8 -24198 -1
-1 0 1;
#X obj 294 94 vsl 8 50 0 1 0 0 empty empty empty 0 -8 0 8 -355 -1 -1
0 1;
#X obj 281 179 vsl 8 50 0 1 0 0 empty empty empty 0 -8 0 8 -258699
-1 -1 0 1;
#X obj 289 179 vsl 8 50 0 1 0 0 empty empty empty 0 -8 0 8 -24198 -1
-1 0 1;
#X obj 297 179 vsl 8 50 0 1 0 0 empty empty empty 0 -8 0 8 -355 -1
-1 0 1;
#X obj 275 353 vsl 8 50 0 1 0 0 empty empty empty 0 -8 0 8 -258699
-1 -1 0 1;
#X obj 283 353 vsl 8 50 0 1 0 0 empty empty empty 0 -8 0 8 -24198 -1
-1 0 1;
#X obj 291 353 vsl 8 50 0 1 0 0 empty empty empty 0 -8 0 8 -355 -1
-1 0 1;
#N canvas 0 50 470 320 speculargem 0;
#X obj 26 145 bng 15 250 50 0 empty empty empty 0 -6 0 8 -262144 -1
-1;
#X obj 41 144 t b f;
#X obj 41 35 vsl 8 50 0 1 0 0 empty empty empty 0 -8 0 8 -258699 -1
-1 0 1;
#X obj 49 35 vsl 8 50 0 1 0 0 empty empty empty 0 -8 0 8 -24198 -1
-1 0 1;
#X obj 57 35 vsl 8 50 0 1 0 0 empty empty empty 0 -8 0 8 -355 -1 -1
0 1;
#X obj 63 167 t b f;
#X floatatom 67 101 5 0 0 0 - - -, f 5;
#X floatatom 53 115 5 0 0 0 - - -, f 5;
#X floatatom 35 129 5 0 0 0 - - -, f 5;
#X obj 17 7 inlet;
#X obj 52 7 inlet;
#X obj 87 7 inlet;
#X obj 44 261 outlet;
#X obj 44 212 pack f f f;
#X msg 42 236 specular \$1 \$2 \$3;
#X connect 0 0 13 0;
#X connect 1 0 13 0;
#X connect 1 1 13 1;
#X connect 2 0 8 0;
#X connect 2 0 13 0;
#X connect 3 0 1 0;
#X connect 3 0 7 0;
#X connect 4 0 5 0;
#X connect 4 0 6 0;
#X connect 5 0 13 0;
#X connect 5 1 13 2;
#X connect 9 0 2 0;
#X connect 10 0 3 0;
#X connect 11 0 4 0;
#X connect 13 0 14 0;
#X connect 14 0 12 0;
#X restore 272 239 pd speculargem;
#N canvas 0 50 470 320 fogcolorgem 0;
#X obj 26 145 bng 15 250 50 0 empty empty empty 0 -6 0 8 -262144 -1
-1;
#X obj 41 144 t b f;
#X obj 41 35 vsl 8 50 0 1 0 0 empty empty empty 0 -8 0 8 -258699 -1
-1 0 1;
#X obj 49 35 vsl 8 50 0 1 0 0 empty empty empty 0 -8 0 8 -24198 -1
-1 0 1;
#X obj 57 35 vsl 8 50 0 1 0 0 empty empty empty 0 -8 0 8 -355 -1 -1
0 1;
#X obj 63 167 t b f;
#X floatatom 67 101 5 0 0 0 - - -, f 5;
#X floatatom 53 115 5 0 0 0 - - -, f 5;
#X floatatom 35 129 5 0 0 0 - - -, f 5;
#X obj 17 7 inlet;
#X obj 52 7 inlet;
#X obj 87 7 inlet;
#X obj 44 261 outlet;
#X obj 44 212 pack f f f;
#X msg 44 236 fogcolor \$1 \$2 \$3;
#X obj 154 9 inlet;
#X connect 0 0 13 0;
#X connect 1 0 13 0;
#X connect 1 1 13 1;
#X connect 2 0 8 0;
#X connect 2 0 13 0;
#X connect 3 0 1 0;
#X connect 3 0 7 0;
#X connect 4 0 5 0;
#X connect 4 0 6 0;
#X connect 5 0 13 0;
#X connect 5 1 13 2;
#X connect 9 0 2 0;
#X connect 10 0 3 0;
#X connect 11 0 4 0;
#X connect 13 0 14 0;
#X connect 14 0 12 0;
#X connect 15 0 13 0;
#X restore 266 413 pd fogcolorgem;
#X msg 313 380 shininess \$1;
#X floatatom 313 361 0 0 0 0 - - -;
#X obj 285 10 vsl 8 50 0 1 0 0 empty empty empty 0 -8 0 8 -258699 -1
-1 0 1;
#X obj 293 10 vsl 8 50 0 1 0 0 empty empty empty 0 -8 0 8 -24198 -1
-1 0 1;
#X obj 301 10 vsl 8 50 0 1 0 0 empty empty empty 0 -8 0 8 -355 -1 -1
0 1;
#N canvas 0 50 462 312 colgem 0;
#X obj 26 145 bng 15 250 50 0 empty empty empty 0 -6 0 8 -262144 -1
-1;
#X obj 41 144 t b f;
#X obj 41 35 vsl 8 50 0 1 0 0 empty empty empty 0 -8 0 8 -258699 -1
-1 0 1;
#X obj 49 35 vsl 8 50 0 1 0 0 empty empty empty 0 -8 0 8 -24198 -1
-1 0 1;
#X obj 57 35 vsl 8 50 0 1 0 0 empty empty empty 0 -8 0 8 -355 -1 -1
0 1;
#X obj 63 167 t b f;
#X floatatom 67 101 5 0 0 0 - - -, f 5;
#X floatatom 53 115 5 0 0 0 - - -, f 5;
#X floatatom 35 129 5 0 0 0 - - -, f 5;
#X obj 17 7 inlet;
#X obj 52 7 inlet;
#X obj 87 7 inlet;
#X obj 44 261 outlet;
#X obj 44 212 pack f f f;
#X msg 44 236 color \$1 \$2 \$3;
#X connect 0 0 13 0;
#X connect 1 0 13 0;
#X connect 1 1 13 1;
#X connect 2 0 8 0;
#X connect 2 0 13 0;
#X connect 3 0 1 0;
#X connect 3 0 7 0;
#X connect 4 0 5 0;
#X connect 4 0 6 0;
#X connect 5 0 13 0;
#X connect 5 1 13 2;
#X connect 9 0 2 0;
#X connect 10 0 3 0;
#X connect 11 0 4 0;
#X connect 13 0 14 0;
#X connect 14 0 12 0;
#X restore 276 70 pd colgem;
#X msg 273 289 fogmode \$1;
#X obj 273 271 hradio 15 1 0 4 empty empty 0_off 0 -6 0 8 -262144 -1
-1 0;
#X floatatom 273 312 0 0 0 0 - - -;
#X msg 273 331 fognum \$1;
#N canvas 0 50 470 320 ambientgem 0;
#X obj 26 145 bng 15 250 50 0 empty empty empty 0 -6 0 8 -262144 -1
-1;
#X obj 41 144 t b f;
#X obj 41 35 vsl 8 50 0 1 0 0 empty empty empty 0 -8 0 8 -258699 -1
-1 0 1;
#X obj 49 35 vsl 8 50 0 1 0 0 empty empty empty 0 -8 0 8 -24198 -1
-1 0 1;
#X obj 57 35 vsl 8 50 0 1 0 0 empty empty empty 0 -8 0 8 -355 -1 -1
0 1;
#X obj 63 167 t b f;
#X floatatom 67 101 5 0 0 0 - - -, f 5;
#X floatatom 53 115 5 0 0 0 - - -, f 5;
#X floatatom 35 129 5 0 0 0 - - -, f 5;
#X obj 17 7 inlet;
#X obj 52 7 inlet;
#X obj 87 7 inlet;
#X obj 44 261 outlet;
#X obj 44 212 pack f f f;
#X msg 44 236 ambient \$1 \$2 \$3;
#X connect 0 0 13 0;
#X connect 1 0 13 0;
#X connect 1 1 13 1;
#X connect 2 0 8 0;
#X connect 2 0 13 0;
#X connect 3 0 1 0;
#X connect 3 0 7 0;
#X connect 4 0 5 0;
#X connect 4 0 6 0;
#X connect 5 0 13 0;
#X connect 5 1 13 2;
#X connect 9 0 2 0;
#X connect 10 0 3 0;
#X connect 11 0 4 0;
#X connect 13 0 14 0;
#X connect 14 0 12 0;
#X restore 269 154 pd ambientgem;
#X obj -34 294 cnv 15 170 320 empty empty empty 20 12 0 14 -228992
-66577 0;
#X obj -21 528 cnv 15 150 100 empty empty empty 20 12 0 14 -24198 -66577
0;
#X obj -13 603 light;
#X msg 74 581 1 1 1;
#X obj 1 536 tgl 15 0 empty empty empty 0 -6 0 8 -262144 -1 -1 0 1
;
#X msg 1 557 debug \$1;
#X floatatom 67 446 5 0 0 0 - - -, f 5;
#X obj -13 507 translateXYZ 2 0 0;
#X obj -13 464 rotateXYZ 0 -120 0;
#X floatatom 27 489 5 1 4 0 - - -, f 5;
#X msg 17 581 1 1 0;
#X obj 19 400 world_light;
#X msg 38 383 1 1 1;
#X msg 38 365 1 0 1;
#X obj 19 348 rotateXYZ;
#X floatatom 51 328 0 0 0 0 - - -;
#X msg -31 366 debug 0;
#X msg -31 382 debug 1;
#X obj -3 309 tgl 15 0 empty empty empty 0 -6 0 8 -262144 -1 -1 0 1
;
#X msg 86 363 1 0 0;
#X obj -32 444 tgl 15 0 empty empty empty 0 -6 0 8 -262144 -1 -1 0
1;
#X msg 271 518 stereoSep \$1;
#X msg 280 559 stereoFoc \$1;
#X msg 289 598 stereoline \$1;
#X floatatom 271 498 0 0 0 0 - - -;
#X floatatom 280 539 0 0 0 0 - - -;
#X obj 289 580 tgl 15 0 empty empty empty 0 -6 0 8 -262144 -1 -1 0
1;
#X msg 261 478 stereo \$1;
#X text -21 636 stereo 0/1/2 : off(0) \, 2-screen-mode(1) \, Red/Green-mode(2)
;
#X obj 261 459 hradio 15 1 0 3 empty empty 0_off 0 -6 0 8 -262144 -1
-1 0;
#X obj 200 430 s \$0-gemwb;
#X obj 261 618 s \$0-gemwb;
#X obj 131 173 r \$0-gemwb;
#X obj 332 87 s \$0-gemwb;
#X obj 349 171 s \$0-gemwb;
#X obj 357 256 s \$0-gemwb;
#X msg 80 339 0.5 0.5 0.5;
#X obj 128 443 alpha;
#X msg 56 608 1 0 0;
#X obj 149 526 vsl 8 50 0 1 0 0 empty empty empty 0 -8 0 8 -258699
-1 -1 0 1;
#X obj 157 526 vsl 8 50 0 1 0 0 empty empty empty 0 -8 0 8 -24198 -1
-1 0 1;
#X obj 165 526 vsl 8 50 0 1 0 0 empty empty empty 0 -8 0 8 -355 -1
-1 0 1;
#X obj 152 323 vsl 8 50 0 1 0 0 empty empty empty 0 -8 0 8 -258699
-1 -1 0 1;
#X obj 160 323 vsl 8 50 0 1 0 0 empty empty empty 0 -8 0 8 -24198 -1
-1 0 1;
#X obj 168 323 vsl 8 50 0 1 0 0 empty empty empty 0 -8 0 8 -355 -1
-1 0 1;
#N canvas 0 50 466 316 colight 0;
#X obj 26 145 bng 15 250 50 0 empty empty empty 0 -6 0 8 -262144 -1
-1;
#X obj 41 144 t b f;
#X obj 41 35 vsl 8 50 0 1 0 0 empty empty empty 0 -8 0 8 -258699 -1
-1 0 1;
#X obj 49 35 vsl 8 50 0 1 0 0 empty empty empty 0 -8 0 8 -24198 -1
-1 0 1;
#X obj 57 35 vsl 8 50 0 1 0 0 empty empty empty 0 -8 0 8 -355 -1 -1
0 1;
#X obj 63 167 t b f;
#X floatatom 67 101 5 0 0 0 - - -, f 5;
#X floatatom 53 115 5 0 0 0 - - -, f 5;
#X floatatom 35 129 5 0 0 0 - - -, f 5;
#X obj 17 7 inlet;
#X obj 52 7 inlet;
#X obj 87 7 inlet;
#X obj 44 261 outlet;
#X obj 44 212 pack f f f;
#X msg 44 236 \$1 \$2 \$3;
#X connect 0 0 13 0;
#X connect 1 0 13 0;
#X connect 1 1 13 1;
#X connect 2 0 8 0;
#X connect 2 0 13 0;
#X connect 3 0 1 0;
#X connect 3 0 7 0;
#X connect 4 0 5 0;
#X connect 4 0 6 0;
#X connect 5 0 13 0;
#X connect 5 1 13 2;
#X connect 9 0 2 0;
#X connect 10 0 3 0;
#X connect 11 0 4 0;
#X connect 13 0 14 0;
#X connect 14 0 12 0;
#X restore 140 586 pd colight;
#N canvas 0 50 466 316 colight 0;
#X obj 26 145 bng 15 250 50 0 empty empty empty 0 -6 0 8 -262144 -1
-1;
#X obj 41 144 t b f;
#X obj 41 35 vsl 8 50 0 1 0 0 empty empty empty 0 -8 0 8 -258699 -1
-1 0 1;
#X obj 49 35 vsl 8 50 0 1 0 0 empty empty empty 0 -8 0 8 -24198 -1
-1 0 1;
#X obj 57 35 vsl 8 50 0 1 0 0 empty empty empty 0 -8 0 8 -355 -1 -1
0 1;
#X obj 63 167 t b f;
#X floatatom 67 101 5 0 0 0 - - -, f 5;
#X floatatom 53 115 5 0 0 0 - - -, f 5;
#X floatatom 35 129 5 0 0 0 - - -, f 5;
#X obj 17 7 inlet;
#X obj 52 7 inlet;
#X obj 87 7 inlet;
#X obj 44 261 outlet;
#X obj 44 212 pack f f f;
#X msg 44 236 \$1 \$2 \$3;
#X connect 0 0 13 0;
#X connect 1 0 13 0;
#X connect 1 1 13 1;
#X connect 2 0 8 0;
#X connect 2 0 13 0;
#X connect 3 0 1 0;
#X connect 3 0 7 0;
#X connect 4 0 5 0;
#X connect 4 0 6 0;
#X connect 5 0 13 0;
#X connect 5 1 13 2;
#X connect 9 0 2 0;
#X connect 10 0 3 0;
#X connect 11 0 4 0;
#X connect 13 0 14 0;
#X connect 14 0 12 0;
#X restore 143 383 pd colight;
#X obj 54 192 r lighting;
#X msg 54 211 lighting \$1;
#X obj 203 254 r fogmode;
#X obj 365 344 r shininess;
#X obj 358 413 r fogcolor;
#X obj 19 308 gemhead 3;
#X obj -13 442 gemhead 4;
#N canvas 536 76 730 657 GemWin_ch 0;
#X obj 285 171 f;
#X obj 206 152 spigot;
#X obj 267 143 sel 0 1;
#X obj 237 124 t f f;
#X obj 206 200 -;
#X obj 206 249 +;
#X obj 267 213 f;
#X obj 159 168 f;
#X obj 80 149 spigot;
#X obj 141 140 sel 0 1;
#X obj 111 121 t f f;
#X obj 80 200 -;
#X obj 80 249 +;
#X obj 141 210 f;
#X obj 406 162 f;
#X obj 327 146 spigot;
#X obj 388 137 sel 0 1;
#X obj 358 118 t f f;
#X obj 327 197 -;
#X obj 388 207 f;
#X obj 80 465 * 4;
#X obj 135 467 * 4;
#X obj 156 308 t b f;
#X obj 94 372 cos;
#X obj 106 430 * 1;
#X obj 80 430 * 1;
#X obj 132 373 sin;
#X obj 107 466 * 4;
#X obj 94 394 t b f;
#X obj 94 348 / 200;
#X obj 80 491 pack f f f;
#X obj 458 49 gemmouse;
#X obj 454 166 loadbang;
#X msg 487 215 0;
#X obj 487 315 curve 2;
#X obj 487 266 color 1 0 0;
#X obj 571 315 curve 2;
#X obj 651 317 curve 2;
#X msg 524 289 3 0 0;
#X msg 608 289 0 3 0;
#X msg 688 291 0 0 3;
#X msg 80 516 view \$1 \$2 \$3 0 0 0 0 1 0;
#X obj 571 266 color 0 1 0;
#X obj 651 268 color 0 0 1;
#X obj 80 308 sin;
#X obj 106 309 cos;
#X obj 327 246 + 200;
#X obj 157 282 / 50;
#X obj 80 283 / -200;
#X obj 18 12 inlet;
#X obj 20 579 outlet;
#X obj 21 551 gemwin \$1;
#X obj 60 14 inlet;
#X obj 215 19 inlet;
#X obj 132 15 inlet;
#X obj 213 44 * 5;
#X obj 59 82 / 127;
#X obj 60 61 * 400;
#X obj 131 82 / 127;
#X obj 131 58 * 200;
#X obj 131 36 * -3.14;
#X obj 60 37 * 3.14;
#X obj 546 91 sel 0 1;
#X msg 582 121 view 0 0 4 0 0 0 0 1 0;
#X msg 577 175 1;
#X obj 487 239 gemhead 50;
#X obj 571 240 gemhead 50;
#X obj 651 242 gemhead 50;
#X obj 515 134 sel 0 1;
#X obj 553 18 inlet;
#X obj 524 88 tgl 15 0 empty empty empty 17 7 0 10 -262144 -1 -1 0
1;
#X obj 482 84 spigot;
#X obj 106 555 print view;
#X connect 0 0 4 1;
#X connect 1 0 4 0;
#X connect 2 0 6 0;
#X connect 2 1 0 0;
#X connect 3 0 1 1;
#X connect 3 1 2 0;
#X connect 4 0 5 0;
#X connect 5 0 6 1;
#X connect 5 0 29 0;
#X connect 6 0 5 1;
#X connect 7 0 11 1;
#X connect 8 0 11 0;
#X connect 9 0 13 0;
#X connect 9 1 7 0;
#X connect 10 0 8 1;
#X connect 10 1 9 0;
#X connect 11 0 12 0;
#X connect 12 0 13 1;
#X connect 12 0 48 0;
#X connect 13 0 12 1;
#X connect 14 0 18 1;
#X connect 15 0 18 0;
#X connect 16 0 19 0;
#X connect 16 1 14 0;
#X connect 17 0 15 1;
#X connect 17 1 16 0;
#X connect 18 0 46 0;
#X connect 19 0 46 1;
#X connect 20 0 30 0;
#X connect 21 0 30 2;
#X connect 22 0 21 0;
#X connect 22 0 20 0;
#X connect 22 0 27 0;
#X connect 22 1 21 1;
#X connect 22 1 20 1;
#X connect 22 1 27 1;
#X connect 23 0 28 0;
#X connect 24 0 21 0;
#X connect 25 0 20 0;
#X connect 26 0 27 0;
#X connect 27 0 30 1;
#X connect 28 0 24 0;
#X connect 28 0 25 0;
#X connect 28 1 24 1;
#X connect 28 1 25 1;
#X connect 29 0 23 0;
#X connect 29 0 26 0;
#X connect 30 0 41 0;
#X connect 31 0 8 0;
#X connect 31 0 7 1;
#X connect 31 1 1 0;
#X connect 31 1 0 1;
#X connect 31 1 14 1;
#X connect 31 1 15 0;
#X connect 31 2 3 0;
#X connect 31 2 10 0;
#X connect 31 2 71 0;
#X connect 31 3 17 0;
#X connect 31 4 62 0;
#X connect 32 0 33 0;
#X connect 32 0 38 0;
#X connect 32 0 39 0;
#X connect 32 0 40 0;
#X connect 32 0 48 0;
#X connect 32 0 46 0;
#X connect 33 0 65 0;
#X connect 33 0 66 0;
#X connect 33 0 67 0;
#X connect 35 0 34 0;
#X connect 38 0 34 2;
#X connect 39 0 36 2;
#X connect 40 0 37 2;
#X connect 41 0 51 0;
#X connect 41 0 72 0;
#X connect 42 0 36 0;
#X connect 43 0 37 0;
#X connect 44 0 25 0;
#X connect 45 0 24 0;
#X connect 46 0 19 1;
#X connect 46 0 47 0;
#X connect 47 0 22 0;
#X connect 48 0 44 0;
#X connect 48 0 45 0;
#X connect 49 0 51 0;
#X connect 51 0 50 0;
#X connect 52 0 61 0;
#X connect 53 0 55 0;
#X connect 54 0 60 0;
#X connect 55 0 47 0;
#X connect 56 0 48 0;
#X connect 57 0 56 0;
#X connect 58 0 29 0;
#X connect 59 0 58 0;
#X connect 60 0 59 0;
#X connect 61 0 57 0;
#X connect 62 1 63 0;
#X connect 63 0 51 0;
#X connect 64 0 65 0;
#X connect 64 0 66 0;
#X connect 64 0 67 0;
#X connect 65 0 35 0;
#X connect 66 0 42 0;
#X connect 67 0 43 0;
#X connect 68 0 33 0;
#X connect 68 1 64 0;
#X connect 69 0 70 0;
#X connect 70 0 71 1;
#X connect 71 0 68 0;
#X restore 143 231 pd GemWin_ch 25;
#X obj 143 201 r gemwinmsg;
#X obj 54 170 s gemwinmsg;
#X obj 212 144 route dimen;
#X obj 214 202 s gemsize;
#X connect 0 0 110 0;
#X connect 1 0 110 0;
#X connect 2 0 110 0;
#X connect 3 0 110 0;
#X connect 4 0 110 0;
#X connect 5 0 110 0;
#X connect 6 0 110 0;
#X connect 7 0 110 0;
#X connect 8 0 110 0;
#X connect 11 0 16 0;
#X connect 12 0 110 0;
#X connect 13 0 110 0;
#X connect 14 0 9 0;
#X connect 14 0 10 0;
#X connect 14 0 11 0;
#X connect 15 0 110 0;
#X connect 17 0 110 0;
#X connect 18 0 110 0;
#X connect 19 0 110 0;
#X connect 20 0 2 0;
#X connect 21 0 110 0;
#X connect 22 0 110 0;
#X connect 23 0 11 0;
#X connect 24 0 110 0;
#X connect 25 0 110 0;
#X connect 26 0 27 0;
#X connect 27 0 108 4;
#X connect 28 0 9 0;
#X connect 28 0 10 0;
#X connect 28 0 11 0;
#X connect 29 0 31 0;
#X connect 30 0 21 0;
#X connect 31 0 30 0;
#X connect 32 0 53 0;
#X connect 33 0 53 1;
#X connect 34 0 53 2;
#X connect 35 0 41 0;
#X connect 36 0 41 1;
#X connect 37 0 41 2;
#X connect 38 0 42 0;
#X connect 39 0 42 1;
#X connect 40 0 42 2;
#X connect 41 0 89 0;
#X connect 42 0 84 0;
#X connect 43 0 84 0;
#X connect 44 0 43 0;
#X connect 45 0 48 0;
#X connect 46 0 48 1;
#X connect 47 0 48 2;
#X connect 48 0 87 0;
#X connect 49 0 84 0;
#X connect 50 0 49 0;
#X connect 51 0 52 0;
#X connect 52 0 84 0;
#X connect 53 0 88 0;
#X connect 57 0 56 1;
#X connect 58 0 59 0;
#X connect 59 0 56 0;
#X connect 60 0 62 2;
#X connect 61 0 56 0;
#X connect 62 0 61 0;
#X connect 63 0 61 1;
#X connect 64 0 56 1;
#X connect 66 0 65 1;
#X connect 67 0 65 1;
#X connect 68 0 65 0;
#X connect 69 0 68 2;
#X connect 70 0 65 0;
#X connect 71 0 65 0;
#X connect 72 0 106 0;
#X connect 73 0 65 1;
#X connect 74 0 107 0;
#X connect 75 0 85 0;
#X connect 76 0 85 0;
#X connect 77 0 85 0;
#X connect 78 0 75 0;
#X connect 79 0 76 0;
#X connect 80 0 77 0;
#X connect 81 0 85 0;
#X connect 83 0 81 0;
#X connect 86 0 110 0;
#X connect 90 0 65 1;
#X connect 92 0 56 1;
#X connect 93 0 99 0;
#X connect 94 0 99 1;
#X connect 95 0 99 2;
#X connect 96 0 100 0;
#X connect 97 0 100 1;
#X connect 98 0 100 2;
#X connect 99 0 56 1;
#X connect 100 0 65 1;
#X connect 101 0 102 0;
#X connect 102 0 110 0;
#X connect 103 0 50 0;
#X connect 104 0 44 0;
#X connect 105 0 42 3;
#X connect 106 0 68 0;
#X connect 107 0 62 0;
#X connect 109 0 108 0;
#X connect 109 0 111 0;
#X connect 111 0 112 0;
#X restore 22 628 pd GemWin_Benj;
#X msg 125 392 create \, 1;
#X msg 22 406 dimen 400 300;
#X msg 22 365 dimen 1024 768;
#X obj 37 661 tgl 15 0 empty empty on_off_reperes 0 -6 0 8 -261689
-1 -1 0 1;
#X msg 22 486 offset 1024 0;
#X msg 23 586 view 4 0 0 0 0 0 0 1 0;
#X msg 124 409 destroy \, 0;
#X msg 22 506 offset 0 0;
#X obj 137 435 vsl 8 50 0 1 0 0 empty empty empty 0 -8 0 8 -258699
-1 -1 0 1;
#X obj 145 435 vsl 8 50 0 1 0 0 empty empty empty 0 -8 0 8 -24198 -1
-1 0 1;
#X obj 153 435 vsl 8 50 0 1 0 0 empty empty empty 0 -8 0 8 -355 -1
-1 0 1;
#N canvas 373 570 462 312 colgem 0;
#X obj 26 145 bng 15 250 50 0 empty empty empty 0 -6 0 8 -262144 -1
-1;
#X obj 41 144 t b f;
#X obj 41 35 vsl 8 50 0 1 0 0 empty empty empty 0 -8 0 8 -258699 -1
-1 0 1;
#X obj 49 35 vsl 8 50 0 1 0 0 empty empty empty 0 -8 0 8 -24198 -1
-1 0 1;
#X obj 57 35 vsl 8 50 0 1 0 0 empty empty empty 0 -8 0 8 -355 -1 -1
0 1;
#X obj 63 167 t b f;
#X floatatom 67 101 5 0 0 0 - - -, f 5;
#X floatatom 53 115 5 0 0 0 - - -, f 5;
#X floatatom 35 129 5 0 0 0 - - -, f 5;
#X obj 17 7 inlet;
#X obj 52 7 inlet;
#X obj 87 7 inlet;
#X obj 44 261 outlet;
#X obj 44 212 pack f f f;
#X msg 44 236 color \$1 \$2 \$3;
#X obj 175 57 r oscilloinit;
#X msg 176 87 0 0 0;
#X obj 175 38 r croix11;
#X obj 257 15 r dblecone12;
#X obj 261 57 r whitspectroad;
#X msg 260 87 1 1 1;
#X obj 359 59 r rotoscope;
#X obj 359 81 r rotocroix;
#X obj 359 103 r rotoscopeBONK;
#X obj 361 121 r rotoscopeBONKQQQ;
#X obj 343 149 r rotoscopeRed;
#X obj 255 162 r orthoON;
#X obj 255 193 sel 1;
#X connect 0 0 13 0;
#X connect 1 0 13 0;
#X connect 1 1 13 1;
#X connect 2 0 8 0;
#X connect 2 0 13 0;
#X connect 3 0 1 0;
#X connect 3 0 7 0;
#X connect 4 0 5 0;
#X connect 4 0 6 0;
#X connect 5 0 13 0;
#X connect 5 1 13 2;
#X connect 9 0 2 0;
#X connect 10 0 3 0;
#X connect 11 0 4 0;
#X connect 13 0 14 0;
#X connect 14 0 12 0;
#X connect 15 0 16 0;
#X connect 16 0 14 0;
#X connect 17 0 16 0;
#X connect 18 0 16 0;
#X connect 19 0 20 0;
#X connect 20 0 14 0;
#X connect 21 0 20 0;
#X connect 22 0 20 0;
#X connect 23 0 20 0;
#X connect 24 0 20 0;
#X connect 25 0 16 0;
#X connect 26 0 27 0;
#X connect 27 0 16 0;
#X restore 128 495 pd colgem;
#X msg 22 605 view 0 4 0 0 0 0 0 1 0;
#X msg 23 567 view 0 0 4 0 0 0 0 1 0;
#X msg 32 529 cursor \$1;
#X msg 33 548 border \$1;
#X obj 86 529 tgl 15 0 empty empty empty 17 7 0 10 -262144 -1 -1 0
1;
#X obj 87 547 tgl 15 0 empty empty empty 17 7 0 10 -262144 -1 -1 0
1;
#X obj 91 505 r ib0;
#X msg 22 466 offset 1680 100;
#X msg 122 372 dimen 640 480;
#X obj 13 686 cnv 15 450 300 empty empty titres 20 12 0 14 -260097
-66577 0;
#X msg 164 632 buffer 1;
#X msg 164 611 buffer 2;
#X msg 142 656 color 1 1 1;
#X obj 187 511 bng 32 250 50 0 empty empty empty 17 7 0 10 -262144
-1 -1;
#X msg 171 678 color 0 0 0 \, view 8.9 -8.6 15;
#X msg 22 386 dimen 800 600;
#X msg 174 591 reset;
#X msg 18 682 0;
#X msg 49 682 2;
#X msg 78 682 4;
#X msg 139 682 8;
#X msg 109 682 5;
#X msg 60 732 destroy \, FSAA \$1 \, create \, 1;
#X obj 61 658 r ib0;
#X obj 250 633 bng 32 250 50 0 empty empty empty 17 7 0 10 -262144
-1 -1;
#X obj 242 577 tgl 15 0 empty empty empty 17 7 0 10 -262144 -1 -1 0
1;
#X floatatom 290 572 5 0 0 0 - - -, f 5;
#X floatatom 187 445 5 0 0 0 - - -, f 5;
#X obj 49 246 r ecran;
#X obj 49 267 sel 0;
#X msg 100 313 0;
#X obj 50 292 t b b b b;
#X obj 141 282 sel 0;
#X obj 142 307 t b b b b;
#X obj 141 261 r ecrantest;
#X msg 192 328 1;
#X obj 194 398 s gemcreated;
#X msg 23 344 dimen 1280 720;
#X msg 53 166 dimen 1280 1024;
#X obj 150 144 r ecranAstro;
#X obj 150 184 sel 0;
#X obj 124 16 t b b b b;
#X msg 192 236 0;
#X msg 29 221 dimen 1280 960;
#X obj 238 505 bng 32 250 50 0 empty empty Buffer1 0 -7 0 10 -232576
-1 -1;
#X obj 288 506 bng 32 250 50 0 empty empty Buffer2 0 -7 0 10 -261682
-1 -1;
#N canvas 3 75 656 323 bufferzap 0;
#X obj 298 196 s gemwinmsg;
#X msg 239 123 create \, 1;
#X obj 224 -65 inlet;
#X msg 284 31 buffer 2;
#X msg 300 7 0 \, destroy;
#X obj 224 172 s mbuf;
#X msg 224 73 0;
#X msg 258 98 color 0 0 0;
#X obj 224 -18 t b b b b b b;
#X obj -17 198 s gemwinmsg;
#X msg -76 125 create \, 1;
#X obj -91 -63 inlet;
#X msg -15 9 0 \, destroy;
#X obj -91 174 s mbuf;
#X msg -57 100 color 0 0 0;
#X obj -91 -16 t b b b b b b;
#X msg -31 33 buffer 1;
#X msg -91 75 1;
#X msg -9 147 dimen 1024 768 \, offset 1366 0 \, border 1;
#X msg 309 148 dimen 1024 768 \, offset 1366 0 \, border 1;
#X msg -46 61 dimen 640 480 \, offset 0 0 \, border 1;
#X msg 269 59 dimen 640 480 \, offset 0 0 \, border 1;
#X connect 1 0 0 0;
#X connect 2 0 8 0;
#X connect 3 0 0 0;
#X connect 4 0 0 0;
#X connect 6 0 5 0;
#X connect 7 0 0 0;
#X connect 8 0 6 0;
#X connect 8 1 1 0;
#X connect 8 2 7 0;
#X connect 8 3 21 0;
#X connect 8 4 3 0;
#X connect 8 5 4 0;
#X connect 10 0 9 0;
#X connect 11 0 15 0;
#X connect 12 0 9 0;
#X connect 14 0 9 0;
#X connect 15 0 17 0;
#X connect 15 1 10 0;
#X connect 15 2 14 0;
#X connect 15 3 20 0;
#X connect 15 4 16 0;
#X connect 15 5 12 0;
#X connect 16 0 9 0;
#X connect 17 0 13 0;
#X connect 18 0 9 0;
#X connect 19 0 0 0;
#X connect 20 0 9 0;
#X connect 21 0 0 0;
#X restore 238 553 pd bufferzap;
#X obj 241 596 metro 1000;
#X msg 35 431 offset 1920 0;
#X obj 190 427 tgl 15 0 empty empty empty 17 7 0 10 -262144 -1 -1 0
1;
#X msg 32 63 offset 1920 0;
#X msg 74 93 border 0;
#X msg 73 120 border 1;
#X msg 211 715 color 1 0 0;
#X connect 0 0 2 0;
#X connect 1 0 0 0;
#X connect 3 0 2 0;
#X connect 3 0 51 0;
#X connect 4 0 2 0;
#X connect 5 0 2 0;
#X connect 6 0 2 1;
#X connect 7 0 2 0;
#X connect 8 0 2 0;
#X connect 9 0 2 0;
#X connect 10 0 2 0;
#X connect 11 0 14 0;
#X connect 12 0 14 1;
#X connect 13 0 14 2;
#X connect 14 0 2 0;
#X connect 15 0 2 0;
#X connect 16 0 2 0;
#X connect 17 0 2 0;
#X connect 18 0 2 0;
#X connect 19 0 17 0;
#X connect 20 0 18 0;
#X connect 21 0 19 0;
#X connect 22 0 2 0;
#X connect 23 0 2 0;
#X connect 25 0 2 0;
#X connect 26 0 2 0;
#X connect 27 0 2 0;
#X connect 28 0 2 0;
#X connect 29 0 2 0;
#X connect 30 0 2 0;
#X connect 31 0 2 0;
#X connect 32 0 37 0;
#X connect 33 0 37 0;
#X connect 34 0 37 0;
#X connect 35 0 37 0;
#X connect 36 0 37 0;
#X connect 37 0 2 0;
#X connect 38 0 6 0;
#X connect 39 0 28 0;
#X connect 40 0 62 0;
#X connect 41 0 62 1;
#X connect 42 0 11 0;
#X connect 42 0 12 0;
#X connect 42 0 13 0;
#X connect 43 0 44 0;
#X connect 44 0 9 0;
#X connect 44 1 46 0;
#X connect 45 0 20 0;
#X connect 46 0 3 0;
#X connect 46 1 5 0;
#X connect 46 2 65 0;
#X connect 46 3 45 0;
#X connect 47 0 9 0;
#X connect 47 1 48 0;
#X connect 48 0 3 0;
#X connect 48 1 10 0;
#X connect 48 2 4 0;
#X connect 48 3 50 0;
#X connect 49 0 47 0;
#X connect 50 0 20 0;
#X connect 52 0 2 0;
#X connect 53 0 2 0;
#X connect 54 0 55 0;
#X connect 55 0 9 0;
#X connect 55 1 56 0;
#X connect 56 0 3 0;
#X connect 56 1 58 0;
#X connect 56 2 65 0;
#X connect 56 3 57 0;
#X connect 57 0 20 0;
#X connect 58 0 2 0;
#X connect 59 0 61 0;
#X connect 60 0 61 1;
#X connect 62 0 39 0;
#X connect 63 0 2 0;
#X connect 64 0 42 0;
#X connect 65 0 2 0;
#X connect 66 0 2 0;
#X connect 67 0 2 0;
#X connect 68 0 2 0;
#X restore 42 181 pd GestionEcran;
#X obj 43 157 s \$0-gemwb;
#X msg 63 127 destroy \, 0;
#X text 364 504 30 en 160x120;
#X floatatom 183 572 3 0 100 2 - - -, f 3;
#X obj 186 445 r ib;
#X obj 154 422 r ib;
#X obj 153 406 cnv 19 19 19 empty empty P 4 10 0 14 -262131 -66577
0;
#X obj 186 422 cnv 19 19 19 empty empty P 4 10 0 14 -262131 -66577
0;
#X obj 90 407 cnv 19 19 19 empty empty P 4 10 0 14 -262131 -66577 0
;
#X obj 76 444 tgl 19 0 empty ib1 Gem 0 -6 0 8 -258699 -1 -1 0 1;
#X obj 65 405 bng 21 250 50 0 empty empty Source 0 -6 0 8 -241291 -24198
-1;
#X obj 183 509 vsl 12 60 0 1 0 0 empty empty Flou 0 -8 0 8 -195568
-258699 -1 0 1;
#X obj 154 493 vsl 12 60 0 100 0 0 empty empty Seuil_A 0 -8 0 8 -228992
-258699 -1 0 1;
#X floatatom 154 557 3 0 100 2 - - -, f 3;
#X obj 88 478 tgl 19 0 empty empty Affichage_webcam 0 -6 0 8 -24198
-261689 -1 1 1;
#X obj 90 520 tgl 19 0 empty ib1 Alpha 0 -6 0 8 -33289 -262144 -1 1
1;
#X floatatom 111 574 5 0 0 2 Taille - -, f 5;
#X obj 234 579 metro 100;
#X obj 235 564 tgl 15 0 empty empty empty 17 7 0 10 -262144 -1 -1 0
1;
#X floatatom 282 562 5 0 0 0 - - -, f 5;
#X obj 235 540 r mbuf;
#X floatatom 252 472 5 0 0 2 contrast - -, f 5;
#X floatatom 287 498 5 0 0 2 saturation - -, f 5;
#X msg 405 455 128;
#X msg 406 481 400;
#X msg 439 455 10;
#X msg 473 455 6;
#X msg 474 481 37;
#X msg 506 455 3.62;
#X msg 526 478 0;
#X msg 542 455 1;
#X msg 544 481 1;
#X obj 252 375 vsl 12 80 -21 127 0 0 empty empty empty 0 -9 0 10 -128992
-262144 -1 0 1;
#X obj 287 374 vsl 12 80 0 127 0 0 empty empty empty 0 -9 0 10 -257985
-258113 -1 3600 1;
#X floatatom 326 517 5 0 0 2 gain - -, f 5;
#X obj 326 377 vsl 12 80 0 127 0 0 empty empty empty 0 -9 0 10 -191407
-262144 -1 0 1;
#X obj 352 367 vsl 15 128 0 16 0 0 empty empty Modul_Visage_Laure 0
-9 0 10 -262144 -1 -1 0 1;
#X obj 363 535 sel 0;
#X msg 364 536 -1;
#X msg 371 536 1;
#X msg 408 500 6;
#X msg 442 500 1.62;
#X msg 505 500 -5.3;
#X msg 543 500 1;
#X msg 440 481 3;
#X msg 375 455 1;
#X msg 376 481 0;
#X obj 314 564 vsl 21 80 0 1 0 0 empty ctl4 empty 0 -8 0 8 -195568
-1 -1 0 1;
#X floatatom 313 648 5 0 0 0 - - -, f 5;
#X obj 289 128 loadbang;
#X obj 289 171 s ib;
#X msg 186 462 0;
#X msg 153 446 0;
#X obj 119 519 r ib;
#X msg 111 543 7.13;
#X text 1163 451 30 en 160x120;
#X floatatom 982 519 3 0 100 2 - - -, f 3;
#X obj 985 392 r ib;
#X obj 953 369 r ib;
#X obj 952 353 cnv 19 19 19 empty empty P 4 10 0 14 -262131 -66577
0;
#X obj 985 369 cnv 19 19 19 empty empty P 4 10 0 14 -262131 -66577
0;
#X obj 889 354 cnv 19 19 19 empty empty P 4 10 0 14 -262131 -66577
0;
#X obj 875 391 tgl 19 0 empty ib1 Gem 0 -6 0 8 -258699 -1 -1 0 1;
#X obj 864 352 bng 21 250 50 0 empty empty Source 0 -6 0 8 -241291
-24198 -1;
#X obj 982 456 vsl 12 60 0 1 0 0 empty empty Flou 0 -8 0 8 -195568
-258699 -1 0 1;
#X obj 953 440 vsl 12 60 0 100 0 0 empty empty Seuil_A 0 -8 0 8 -228992
-258699 -1 0 1;
#X floatatom 953 504 3 0 100 2 - - -, f 3;
#X obj 887 425 tgl 19 0 empty empty Affichage_webcam 0 -6 0 8 -24198
-261689 -1 1 1;
#X obj 889 467 tgl 19 0 empty ib1 Alpha 0 -6 0 8 -33289 -262144 -1
1 1;
#X floatatom 910 521 5 0 0 2 Taille - -, f 5;
#X obj 1033 530 metro 100;
#X obj 1034 511 tgl 15 0 empty empty empty 17 7 0 10 -262144 -1 -1
0 1;
#X floatatom 1081 509 5 0 0 0 - - -, f 5;
#X obj 1034 491 r mbuf;
#X floatatom 1051 419 5 0 0 2 contrast - -, f 5;
#X floatatom 1086 445 5 0 0 2 saturation - -, f 5;
#X msg 1204 402 128;
#X msg 1205 428 400;
#X msg 1238 402 10;
#X msg 1272 402 6;
#X msg 1273 428 37;
#X msg 1305 402 3.62;
#X msg 1325 425 0;
#X msg 1342 402 1;
#X msg 1343 428 1;
#X obj 1051 322 vsl 12 80 -21 127 0 0 empty empty empty 0 -9 0 10 -128992
-262144 -1 0 1;
#X obj 1086 321 vsl 12 80 0 127 0 0 empty empty empty 0 -9 0 10 -257985
-258113 -1 0 1;
#X floatatom 1125 464 5 0 0 2 gain - -, f 5;
#X obj 1125 324 vsl 12 80 0 127 0 0 empty empty empty 0 -9 0 10 -191407
-262144 -1 0 1;
#X obj 1151 314 vsl 15 128 0 16 0 0 empty empty Modul_Visage_Laure
0 -9 0 10 -262144 -1 -1 0 1;
#X obj 1162 482 sel 0;
#X msg 1163 483 -1;
#X msg 1170 483 1;
#X msg 1207 447 6;
#X msg 1241 447 1.62;
#X msg 1304 447 -5.3;
#X msg 1342 447 1;
#X msg 1239 428 3;
#X msg 1174 402 1;
#X msg 1175 428 0;
#X obj 1113 511 vsl 21 80 0 1 0 0 empty ctl4 empty 0 -8 0 8 -195568
-1 -1 0 1;
#X floatatom 1112 595 5 0 0 0 - - -, f 5;
#X msg 985 409 0;
#X msg 952 393 0;
#X obj 918 466 r ib;
#X msg 910 490 7.13;
#N canvas 68 295 1366 573 gem_feedback 1;
#X msg 335 145 snap;
#X obj 335 254 rotateXYZ;
#X obj 498 219 hsl 128 15 -34 34 0 0 empty empty empty -2 -6 0 8 -262144
-1 -1 0 1;
#X obj 335 116 t b a;
#X msg 494 198 0;
#X obj 334 675 rectangle 5.334 4;
#X floatatom 415 620 5 0 0 0 - - -, f 5;
#X floatatom 451 621 5 0 0 0 - - -, f 5;
#X floatatom 415 585 5 0 0 0 - - -, f 5;
#X obj 335 616 alpha;
#X obj 515 103 vsl 8 50 0 1 0 0 empty empty empty 0 -8 0 8 -258699
-1 -1 4900 1;
#X obj 522 103 vsl 8 50 0 1 0 0 empty empty empty 0 -8 0 8 -24198 -1
-1 0 1;
#X obj 530 103 vsl 8 50 0 1 0 0 empty empty empty 0 -8 0 8 -355 -1
-1 0 1;
#N canvas 6 56 460 310 color 0;
#X obj 44 212 pack f f f f;
#X msg 44 236 \$1 \$2 \$3 \$4;
#X obj 26 145 bng 15 250 50 0 empty empty empty 0 -6 0 8 -262144 -1
-1;
#X obj 41 144 t b f;
#X obj 41 35 vsl 8 50 0 1 0 0 empty empty empty 0 -8 0 8 -258699 -1
-1 4900 1;
#X obj 49 35 vsl 8 50 0 1 0 0 empty empty empty 0 -8 0 8 -24198 -1
-1 0 1;
#X obj 57 35 vsl 8 50 0 1 0 0 empty empty empty 0 -8 0 8 -355 -1 -1
0 1;
#X obj 65 35 vsl 8 50 0 1 0 0 empty empty empty 0 -8 0 8 -195568 -1
-1 4300 1;
#X obj 63 167 t b f;
#X obj 86 189 t b f;
#X floatatom 77 86 5 0 0 0 - - -, f 5;
#X floatatom 67 101 5 0 0 0 - - -, f 5;
#X floatatom 53 115 5 0 0 0 - - -, f 5;
#X floatatom 35 129 5 0 0 0 - - -, f 5;
#X obj 17 7 inlet;
#X obj 52 7 inlet;
#X obj 87 7 inlet;
#X obj 122 8 inlet;
#X obj 44 261 outlet;
#X connect 0 0 1 0;
#X connect 1 0 18 0;
#X connect 2 0 0 0;
#X connect 3 0 0 0;
#X connect 3 1 0 1;
#X connect 4 0 0 0;
#X connect 4 0 13 0;
#X connect 5 0 3 0;
#X connect 5 0 12 0;
#X connect 6 0 8 0;
#X connect 6 0 11 0;
#X connect 7 0 10 0;
#X connect 8 0 0 0;
#X connect 8 1 0 2;
#X connect 9 0 0 0;
#X connect 9 1 0 3;
#X connect 10 0 9 0;
#X connect 14 0 4 0;
#X connect 15 0 5 0;
#X connect 16 0 6 0;
#X connect 17 0 7 0;
#X restore 505 163 pd color;
#X obj 538 103 vsl 8 50 0 1 0 0 empty empty empty 0 -8 0 8 -195568
-1 -1 4300 1;
#X obj 335 567 color;
#X obj 335 26 tgl 15 0 empty empty empty 17 7 0 10 -262144 -1 -1 1
1;
#X floatatom 495 236 5 0 0 0 - - -, f 5;
#X obj 357 217 hsl 128 15 -34 34 0 0 empty empty empty -2 -6 0 8 -262144
-1 -1 0 1;
#X msg 353 198 0;
#X floatatom 354 234 5 0 0 0 - - -, f 5;
#X obj 561 242 hsl 128 15 -34 34 0 0 empty empty empty -2 -6 0 8 -262144
-1 -1 0 1;
#X floatatom 558 259 5 0 0 0 - - -, f 5;
#X msg 415 556 5.76;
#X msg 524 68 1;
#X obj 539 91 tgl 10 0 empty empty empty 17 7 0 10 -99865 -262144 -1
0 1;
#X msg 552 90 0.551;
#X obj 463 399 r croix11;
#X msg 598 307 720;
#X obj 447 380 r oscilloinit;
#X msg 560 279 0;
#X floatatom 441 328 5 0 0 0 - - -, f 5;
#X floatatom 384 329 5 0 0 0 - - -, f 5;
#X floatatom 349 329 5 0 0 0 - - -, f 5;
#X msg 452 286 270;
#X msg 457 310 0;
#X msg 377 302 182;
#X msg 485 310 86;
#X obj 335 348 translateXYZ;
#X msg 428 491 1 1 1 0.5;
#X msg 474 473 1 1 1 0.88;
#X obj 469 416 r dblecone12;
#X obj 617 395 r whitspectroad;
#X msg 455 558 5.36;
#X msg 491 560 5.32;
#X obj 519 533 r croix11;
#X obj 511 512 r oscilloinit;
#X obj 525 554 r dblecone12;
#X obj 595 579 r whitspectroad;
#X obj 497 453 r rotoscope;
#X msg 496 491 1 1 1 0.75;
#X obj 605 516 r rotocroix;
#X obj 605 538 r rotoscopeBONK;
#X obj 607 556 r rotoscopeBONKQQQ;
#X msg 425 532 5.52;
#X obj 878 186 vsl 8 50 0 1 0 0 empty empty empty 0 -8 0 8 -258699
-1 -1 0 1;
#X obj 885 186 vsl 8 50 0 1 0 0 empty empty empty 0 -8 0 8 -24198 -1
-1 0 1;
#X obj 893 186 vsl 8 50 0 1 0 0 empty empty empty 0 -8 0 8 -355 -1
-1 0 1;
#N canvas 0 50 460 310 color 0;
#X obj 44 212 pack f f f f;
#X msg 44 236 \$1 \$2 \$3 \$4;
#X obj 26 145 bng 15 250 50 0 empty empty empty 0 -6 0 8 -262144 -1
-1;
#X obj 41 144 t b f;
#X obj 41 35 vsl 8 50 0 1 0 0 empty empty empty 0 -8 0 8 -258699 -1
-1 0 1;
#X obj 49 35 vsl 8 50 0 1 0 0 empty empty empty 0 -8 0 8 -24198 -1
-1 0 1;
#X obj 57 35 vsl 8 50 0 1 0 0 empty empty empty 0 -8 0 8 -355 -1 -1
0 1;
#X obj 65 35 vsl 8 50 0 1 0 0 empty empty empty 0 -8 0 8 -195568 -1
-1 0 1;
#X obj 63 167 t b f;
#X obj 86 189 t b f;
#X floatatom 77 86 5 0 0 0 - - -, f 5;
#X floatatom 67 101 5 0 0 0 - - -, f 5;
#X floatatom 53 115 5 0 0 0 - - -, f 5;
#X floatatom 35 129 5 0 0 0 - - -, f 5;
#X obj 17 7 inlet;
#X obj 52 7 inlet;
#X obj 87 7 inlet;
#X obj 122 8 inlet;
#X obj 44 261 outlet;
#X connect 0 0 1 0;
#X connect 1 0 18 0;
#X connect 2 0 0 0;
#X connect 3 0 0 0;
#X connect 3 1 0 1;
#X connect 4 0 0 0;
#X connect 4 0 13 0;
#X connect 5 0 3 0;
#X connect 5 0 12 0;
#X connect 6 0 8 0;
#X connect 6 0 11 0;
#X connect 7 0 9 0;
#X connect 7 0 10 0;
#X connect 8 0 0 0;
#X connect 8 1 0 2;
#X connect 9 0 0 0;
#X connect 9 1 0 3;
#X connect 14 0 4 0;
#X connect 15 0 5 0;
#X connect 16 0 6 0;
#X connect 17 0 7 0;
#X restore 868 246 pd color;
#X obj 901 186 vsl 8 50 0 1 0 0 empty empty empty 0 -8 0 8 -195568
-1 -1 0 1;
#X obj 832 265 color;
#X msg 887 151 1;
#X obj 902 174 tgl 10 0 empty empty empty 17 7 0 10 -99865 -262144
-1 0 1;
#X msg 915 173 0.551;
#X obj 832 289 alpha;
#X obj 364 25 inlet;
#X obj 397 401 inlet;
#X obj 498 598 inlet;
#X msg 617 464 1 1 1 0.9;
#X obj 353 376 pix_invert;
#X obj 335 178 pix_snap2tex 0 0 800 600;
#X msg 511 577 5.25;
#X obj 335 80 repeat 1;
#X floatatom 417 79 5 0 0 0 - - -, f 5;
#X obj 726 292 r f1;
#X obj 700 49 r transFFFz;
#X msg 377 588 5.334;
#X msg 456 117 400 300;
#X msg 456 95 800 600;
#X msg 457 73 1024 768;
#X obj 381 138 r gemsize;
#X obj 569 30 inlet;
#X obj 781 439 r gemwinmsg;
#X obj 780 472 route dimen;
#X obj 787 506 unpack f f;
#X floatatom 803 549 5 0 0 0 - - -, f 5;
#X floatatom 850 551 5 0 0 0 - - -, f 5;
#X obj 348 597 tgl 15 0 empty empty empty 17 7 0 10 -262144 -1 -1 0
1;
#X obj 335 47 gemhead 315;
#X msg 457 140 640 480;
#X obj 232 627 s gemhhh;
#X obj 383 622 tgl 15 0 empty empty empty 17 7 0 10 -262144 -1 -1 1
1;
#X obj 351 642 spigot;
#X obj 908 32 inlet;
#X text 1129 355 30 en 160x120;
#X floatatom 1017 323 5 0 0 2 contrast - -, f 5;
#X floatatom 1052 349 5 0 0 2 saturation - -, f 5;
#X msg 1170 306 128;
#X msg 1171 332 400;
#X msg 1204 306 10;
#X obj 1017 226 vsl 12 80 -21 127 0 0 empty empty empty 0 -9 0 10 -128992
-262144 -1 0 1;
#X obj 1052 225 vsl 12 80 0 127 0 0 empty empty empty 0 -9 0 10 -257985
-258113 -1 4000 1;
#X floatatom 1091 368 5 0 0 2 gain - -, f 5;
#X obj 1091 228 vsl 12 80 0 127 0 0 empty empty empty 0 -9 0 10 -191407
-262144 -1 0 1;
#X msg 1205 332 3;
#X msg 1140 306 1;
#X msg 1141 332 0;
#X obj 929 357 pix_contrast;
#X obj 929 418 pix_gain;
#X msg 1178 390 1;
#X msg 1212 368 -1;
#X msg 455 54 1280 800;
#X msg 225 279 -13.1;
#X floatatom 234 107 5 0 0 0 - - -, f 5;
#X floatatom 177 108 5 0 0 0 - - -, f 5;
#X floatatom 142 108 5 0 0 0 - - -, f 5;
#X msg 214 89 270;
#X msg 250 89 0;
#X msg 144 81 0;
#X msg 170 81 182;
#X msg 278 89 86;
#X obj 128 127 translateXYZ;
#X msg 103 64 -13.1;
#X obj 586 613 * 800;
#X msg 679 605 800;
#X msg 666 639 3840;
#X msg 414 293 9.5;
#X msg 322 288 51.2;
#X msg 276 255 0;
#X msg 369 283 0;
#X obj 586 646 / 1280;
#X msg 387 112 1280 0;
#X msg 641 137 1280 0;
#X msg 395 158 320 0;
#X msg 585 56 320 200;
#X msg 460 20 3280 800;
#X connect 0 0 70 0;
#X connect 1 0 107 0;
#X connect 2 0 17 0;
#X connect 3 0 0 0;
#X connect 3 1 70 0;
#X connect 4 0 2 0;
#X connect 6 0 5 1;
#X connect 7 0 5 2;
#X connect 8 0 6 0;
#X connect 8 0 123 0;
#X connect 9 0 92 0;
#X connect 10 0 13 0;
#X connect 11 0 13 1;
#X connect 12 0 13 2;
#X connect 13 0 15 1;
#X connect 14 0 13 3;
#X connect 15 0 9 0;
#X connect 15 0 90 0;
#X connect 16 0 88 0;
#X connect 17 0 1 2;
#X connect 18 0 20 0;
#X connect 19 0 18 0;
#X connect 20 0 1 1;
#X connect 21 0 22 0;
#X connect 22 0 1 3;
#X connect 23 0 8 0;
#X connect 24 0 10 0;
#X connect 24 0 11 0;
#X connect 24 0 12 0;
#X connect 25 0 14 0;
#X connect 26 0 14 0;
#X connect 27 0 39 0;
#X connect 28 0 22 0;
#X connect 29 0 30 0;
#X connect 29 0 39 0;
#X connect 30 0 22 0;
#X connect 31 0 38 3;
#X connect 32 0 38 2;
#X connect 33 0 38 1;
#X connect 34 0 31 0;
#X connect 35 0 31 0;
#X connect 36 0 33 0;
#X connect 37 0 31 0;
#X connect 38 0 15 0;
#X connect 39 0 15 1;
#X connect 40 0 15 1;
#X connect 41 0 40 0;
#X connect 43 0 8 0;
#X connect 44 0 8 0;
#X connect 45 0 23 0;
#X connect 45 0 28 0;
#X connect 46 0 54 0;
#X connect 47 0 44 0;
#X connect 49 0 50 0;
#X connect 49 0 30 0;
#X connect 49 0 44 0;
#X connect 50 0 15 1;
#X connect 51 0 43 0;
#X connect 52 0 43 0;
#X connect 53 0 23 0;
#X connect 54 0 8 0;
#X connect 55 0 58 0;
#X connect 56 0 58 1;
#X connect 57 0 58 2;
#X connect 58 0 60 1;
#X connect 59 0 58 3;
#X connect 60 0 64 0;
#X connect 61 0 55 0;
#X connect 61 0 56 0;
#X connect 61 0 57 0;
#X connect 62 0 59 0;
#X connect 63 0 59 0;
#X connect 65 0 16 0;
#X connect 66 0 15 1;
#X connect 67 0 8 0;
#X connect 68 0 15 1;
#X connect 69 0 15 0;
#X connect 70 0 1 0;
#X connect 71 0 8 0;
#X connect 72 0 3 0;
#X connect 73 0 72 1;
#X connect 75 0 38 3;
#X connect 76 0 8 0;
#X connect 77 0 70 2;
#X connect 78 0 70 2;
#X connect 79 0 70 2;
#X connect 81 0 88 0;
#X connect 83 0 84 0;
#X connect 84 0 85 0;
#X connect 84 1 86 0;
#X connect 85 0 130 1;
#X connect 86 0 123 1;
#X connect 87 0 9 0;
#X connect 88 0 72 0;
#X connect 89 0 70 2;
#X connect 91 0 92 1;
#X connect 92 0 5 0;
#X connect 93 0 91 0;
#X connect 95 0 107 1;
#X connect 96 0 107 2;
#X connect 97 0 95 0;
#X connect 98 0 96 0;
#X connect 99 0 95 0;
#X connect 100 0 95 0;
#X connect 101 0 96 0;
#X connect 102 0 108 1;
#X connect 103 0 102 0;
#X connect 104 0 96 0;
#X connect 105 0 95 0;
#X connect 106 0 96 0;
#X connect 107 0 108 0;
#X connect 108 0 38 0;
#X connect 109 0 102 0;
#X connect 110 0 102 0;
#X connect 111 0 70 2;
#X connect 112 0 33 0;
#X connect 113 0 121 3;
#X connect 114 0 121 2;
#X connect 115 0 121 1;
#X connect 116 0 113 0;
#X connect 117 0 113 0;
#X connect 118 0 115 0;
#X connect 119 0 115 0;
#X connect 120 0 113 0;
#X connect 121 0 3 0;
#X connect 122 0 115 0;
#X connect 123 0 130 0;
#X connect 124 0 123 1;
#X connect 125 0 130 1;
#X connect 126 0 32 0;
#X connect 127 0 33 0;
#X connect 128 0 33 0;
#X connect 129 0 32 0;
#X connect 130 0 7 0;
#X connect 131 0 70 1;
#X connect 133 0 70 1;
#X connect 134 0 70 2;
#X connect 135 0 70 2;
#X restore 653 197 pd gem_feedback;
#X obj 723 107 vsl 8 50 0 1 0 0 empty empty empty 0 -8 0 8 -258699
-1 -1 4900 1;
#X obj 730 107 vsl 8 50 0 1 0 0 empty empty empty 0 -8 0 8 -24198 -1
-1 4900 1;
#X obj 738 107 vsl 8 50 0 1 0 0 empty empty empty 0 -8 0 8 -355 -1
-1 4900 1;
#N canvas 856 324 460 310 color 1;
#X obj 44 212 pack f f f f;
#X msg 44 236 \$1 \$2 \$3 \$4;
#X obj 26 145 bng 15 250 50 0 empty empty empty 0 -6 0 8 -262144 -1
-1;
#X obj 41 144 t b f;
#X obj 41 35 vsl 8 50 0 1 0 0 empty empty empty 0 -8 0 8 -258699 -1
-1 4900 1;
#X obj 49 35 vsl 8 50 0 1 0 0 empty empty empty 0 -8 0 8 -24198 -1
-1 4900 1;
#X obj 57 35 vsl 8 50 0 1 0 0 empty empty empty 0 -8 0 8 -355 -1 -1
4900 1;
#X obj 65 35 vsl 8 50 0 1 0 0 empty empty empty 0 -8 0 8 -195568 -1
-1 3700 1;
#X obj 63 167 t b f;
#X obj 86 189 t b f;
#X floatatom 77 86 5 0 0 0 - - -, f 5;
#X floatatom 67 101 5 0 0 0 - - -, f 5;
#X floatatom 53 115 5 0 0 0 - - -, f 5;
#X floatatom 35 129 5 0 0 0 - - -, f 5;
#X obj 17 7 inlet;
#X obj 52 7 inlet;
#X obj 87 7 inlet;
#X obj 122 8 inlet;
#X obj 44 261 outlet;
#X connect 0 0 1 0;
#X connect 1 0 18 0;
#X connect 2 0 0 0;
#X connect 3 0 0 0;
#X connect 3 1 0 1;
#X connect 4 0 0 0;
#X connect 4 0 13 0;
#X connect 5 0 3 0;
#X connect 5 0 12 0;
#X connect 6 0 8 0;
#X connect 6 0 11 0;
#X connect 7 0 9 0;
#X connect 7 0 10 0;
#X connect 8 0 0 0;
#X connect 8 1 0 2;
#X connect 9 0 0 0;
#X connect 9 1 0 3;
#X connect 14 0 4 0;
#X connect 15 0 5 0;
#X connect 16 0 6 0;
#X connect 17 0 7 0;
#X restore 713 167 pd color;
#X obj 746 107 vsl 8 50 0 1 0 0 empty empty empty 0 -8 0 8 -195568
-1 -1 3700 1;
#X msg 730 76 1;
#X obj 747 95 tgl 10 0 empty empty empty 17 7 0 10 -99865 -262144 -1
0 1;
#X msg 760 94 0.551;
#X obj 670 157 tgl 29 0 empty ib0 empty 17 7 0 10 -258113 -262144 -1
1 1;
#X floatatom 776 168 5 0 0 0 - - -, f 5;
#X msg 776 149 4.71;
#X obj 788 113 r ib;
#X msg 817 182 5.76;
#X msg 816 143 5.36;
#X msg 816 162 5.32;
#X msg 815 123 5.52;
#X obj 816 99 r vid2;
#X msg 856 141 5.333;
#X msg 857 180 5.335;
#X obj 795 25 r whitspectroad;
#X msg 768 64 0.857;
#X msg 857 160 5.334;
#X obj 770 235 metro 100;
#X obj 770 212 tgl 15 0 empty empty empty 17 7 0 10 -262144 -1 -1 0
1;
#X floatatom 791 215 5 0 0 0 - - -, f 5;
#X obj 770 192 r mbuf;
#X obj 828 211 sel 1;
#X obj 680 130 r mbuf;
#X obj 670 45 r trackoscillo;
#X obj 897 36 adc~;
#X obj 900 127 *~ 1;
#X obj 897 77 hip~ 15;
#X obj 898 102 lop~ 105;
#X obj 900 148 env~;
#X floatatom 931 159 5 0 0 0 - - -, f 5;
#X floatatom 931 182 5 0 0 0 - - -, f 5;
#X obj 900 172 - 87;
#X obj 900 197 / 7;
#X obj 897 57 *~;
#X obj 932 56 tgl 15 0 empty empty empty 17 7 0 10 -262144 -1 -1 0
1;
#X obj 933 33 r adrv;
#X obj 384 235 cnv 15 150 80 empty empty empty 20 12 0 14 -257472 -66577
0;
#N canvas 333 101 920 632 OOOscillo 0;
#X floatatom 67 45 5 0 0 0 - - -, f 5;
#X obj 70 30 hsl 100 15 0 80 0 0 empty empty empty -2 -6 0 8 -225280
-1 -1 0 1;
#X text 182 14 rotateXY;
#X text 182 1 Repeat 3;
#X text 183 27 width 92;
#X text 177 35 div bonk 40;
#X obj 253 14 cnv 15 100 60 empty empty empty 20 12 0 14 -233017 -66577
0;
#X floatatom 272 34 5 0 0 0 - - -, f 5;
#X obj 272 47 s \$0-reapno;
#X obj 87 7 inlet;
#X obj 312 17 inlet;
#X floatatom 54 164 5 0 0 0 - - -, f 5;
#X floatatom 61 150 5 0 0 0 - - -, f 5;
#X floatatom 54 136 5 0 0 2 x #0-xosc1 -, f 5;
#X obj 96 92 tgl 32 0 empty empty empty 0 -6 0 8 -24198 -1 -1 0 1;
#X obj 103 136 tgl 15 0 iMvtOn empty mvt 0 -6 0 8 -195568 -1 -1 0 1
;
#X floatatom 68 190 5 0 0 2 --y - -, f 5;
#X floatatom 75 219 5 0 0 2 /y - -, f 5;
#X obj 186 51 inlet;
#X obj 186 75 t a;
#X msg 89 170 5.333;
#X obj 272 -1 hradio 15 1 0 8 empty empty empty 0 -6 0 8 -262144 -1
-1 0;
#N canvas 0 50 590 677 receive_Mvt_Rect 0;
#X obj 55 75 spigot;
#X obj 86 61 tgl 15 0 empty empty empty 0 -6 0 8 -262144 -1 -1 0 1
;
#X obj 112 75 spigot;
#X obj 143 61 tgl 15 0 empty empty empty 0 -6 0 8 -262144 -1 -1 0 1
;
#X obj 171 75 spigot;
#X obj 202 61 tgl 15 0 empty empty empty 0 -6 0 8 -262144 -1 -1 0 1
;
#X obj 8 46 tgl 15 0 empty empty empty 0 -6 0 8 -262144 -1 -1 0 1;
#X obj 53 191 spigot;
#X obj 84 177 tgl 15 0 empty empty empty 0 -6 0 8 -262144 -1 -1 0 1
;
#X obj 110 191 spigot;
#X obj 141 177 tgl 15 0 empty empty empty 0 -6 0 8 -262144 -1 -1 0
1;
#X obj 169 191 spigot;
#X obj 200 177 tgl 15 0 empty empty empty 0 -6 0 8 -262144 -1 -1 0
1;
#X obj 6 162 tgl 15 0 empty empty empty 0 -6 0 8 -262144 -1 -1 0 1
;
#X obj 53 307 spigot;
#X obj 84 293 tgl 15 0 empty empty empty 0 -6 0 8 -262144 -1 -1 0 1
;
#X obj 110 307 spigot;
#X obj 141 293 tgl 15 0 empty empty empty 0 -6 0 8 -262144 -1 -1 0
1;
#X obj 169 307 spigot;
#X obj 200 293 tgl 15 0 empty empty empty 0 -6 0 8 -262144 -1 -1 0
1;
#X obj 6 278 tgl 15 0 empty empty empty 0 -6 0 8 -262144 -1 -1 0 1
;
#X obj 4 5 inlet;
#X obj 57 31 r ArX1;
#X obj 114 31 r ArY1;
#X obj 177 31 r ArZ1;
#X obj 172 102 s \$0-rZ1;
#X obj 109 102 s \$0-rY1;
#X obj 52 102 s \$0-rX1;
#X obj 57 146 r AtX;
#X obj 118 146 r AtY;
#X obj 193 149 r AtZ;
#X obj 188 222 s \$0-tZ;
#X obj 113 219 s \$0-tY;
#X obj 53 219 s \$0-tX;
#X obj 53 256 r AsX;
#X obj 124 254 r AsY;
#X obj 203 256 r AsZ;
#X obj 199 343 s \$0-sZ;
#X obj 120 342 s \$0-sY;
#X obj 49 344 s \$0-sX;
#X connect 0 0 27 0;
#X connect 1 0 0 1;
#X connect 2 0 26 0;
#X connect 3 0 2 1;
#X connect 4 0 25 0;
#X connect 5 0 4 1;
#X connect 6 0 1 0;
#X connect 6 0 3 0;
#X connect 6 0 5 0;
#X connect 6 0 13 0;
#X connect 7 0 33 0;
#X connect 8 0 7 1;
#X connect 9 0 32 0;
#X connect 10 0 9 1;
#X connect 11 0 31 0;
#X connect 12 0 11 1;
#X connect 13 0 8 0;
#X connect 13 0 10 0;
#X connect 13 0 12 0;
#X connect 13 0 20 0;
#X connect 14 0 39 0;
#X connect 15 0 14 1;
#X connect 16 0 38 0;
#X connect 17 0 16 1;
#X connect 18 0 37 0;
#X connect 19 0 18 1;
#X connect 20 0 15 0;
#X connect 20 0 17 0;
#X connect 20 0 19 0;
#X connect 21 0 6 0;
#X connect 22 0 0 0;
#X connect 23 0 2 0;
#X connect 24 0 4 0;
#X connect 28 0 7 0;
#X connect 29 0 9 0;
#X connect 30 0 11 0;
#X connect 34 0 14 0;
#X connect 35 0 16 0;
#X connect 36 0 18 0;
#X restore 384 54 pd receive_Mvt_Rect;
#X obj 384 35 tgl 8 0 empty iMvtOn Mvt 0 -6 0 8 -195568 -1 -1 0 1;
#N canvas 89 346 470 320 presets_osc 0;
#X floatatom 46 160 5 0 0 2 x - #0-xosc1, f 5;
#X floatatom 48 195 5 0 0 0 - - #0-wosc1, f 5;
#X floatatom 47 231 5 0 0 2 x - #0-xosc2, f 5;
#X floatatom 52 268 5 0 0 0 - - #0-wosc2, f 5;
#X floatatom 54 322 5 0 0 2 x - #0-xosc3, f 5;
#X floatatom 231 330 5 0 0 2 x - #0-xosc4, f 5;
#X floatatom 304 377 5 0 0 0 - - #0-wosc4, f 5;
#X msg 56 141 35;
#X msg 56 176 44;
#X msg 59 211 27;
#X msg 59 248 27;
#X obj 79 114 t b;
#X obj 59 69 select 0 1 2 3 4 5;
#X obj 59 94 bng 15 250 50 0 empty empty empty 0 -6 0 8 -262144 -1
-1;
#X obj 79 94 bng 15 250 50 0 empty empty empty 0 -6 0 8 -262144 -1
-1;
#X obj 99 96 bng 15 250 50 0 empty empty empty 0 -6 0 8 -262144 -1
-1;
#X obj 121 98 bng 15 250 50 0 empty empty empty 0 -6 0 8 -262144 -1
-1;
#X obj 142 98 bng 15 250 50 0 empty empty empty 0 -6 0 8 -262144 -1
-1;
#X obj 162 100 bng 15 250 50 0 empty empty empty 0 -6 0 8 -262144 -1
-1;
#X obj 59 4 inlet;
#X floatatom 59 48 5 0 0 0 - - -, f 5;
#X obj 59 26 hradio 15 1 0 6 empty empty empty 0 -6 0 8 -262144 -1
-1 0;
#X text 19 176 width;
#X floatatom 149 173 5 0 0 2 x - #0-xosc1, f 5;
#X floatatom 151 208 5 0 0 0 - - #0-wosc1, f 5;
#X floatatom 150 244 5 0 0 2 x - #0-xosc2, f 5;
#X floatatom 155 281 5 0 0 0 - - #0-wosc2, f 5;
#X text 122 188 width;
#X floatatom 110 171 5 0 0 2 y - #0-yosc1, f 5;
#X floatatom 111 243 5 0 0 2 y - #0-yosc2, f 5;
#X obj 122 124 t b b;
#X msg 120 152 149;
#X msg 159 154 34;
#X msg 159 189 -8;
#X msg 121 224 116;
#X text 15 247 width;
#X text 118 259 width;
#X msg 162 261 62;
#X msg 162 224 45;
#X connect 7 0 0 0;
#X connect 8 0 1 0;
#X connect 9 0 2 0;
#X connect 10 0 3 0;
#X connect 11 0 7 0;
#X connect 11 0 8 0;
#X connect 11 0 9 0;
#X connect 11 0 10 0;
#X connect 12 0 13 0;
#X connect 12 1 14 0;
#X connect 12 2 15 0;
#X connect 12 3 16 0;
#X connect 12 4 17 0;
#X connect 12 5 18 0;
#X connect 14 0 11 0;
#X connect 15 0 30 0;
#X connect 19 0 21 0;
#X connect 20 0 12 0;
#X connect 21 0 20 0;
#X connect 30 0 31 0;
#X connect 30 0 34 0;
#X connect 30 1 32 0;
#X connect 30 1 33 0;
#X connect 30 1 38 0;
#X connect 30 1 37 0;
#X connect 31 0 28 0;
#X connect 32 0 23 0;
#X connect 33 0 24 0;
#X connect 34 0 29 0;
#X connect 37 0 26 0;
#X connect 38 0 25 0;
#X restore 397 330 pd presets_osc;
#X floatatom 397 311 5 0 0 0 - - -, f 5;
#X obj 397 289 hradio 15 1 0 6 empty empty empty 0 -6 0 8 -262144 -1
-1 0;
#X obj 448 -6 loadbang;
#X obj 95 153 r i11;
#X obj 448 20 s i11;
#X obj -12 133 r \$0-yosc1;
#X obj 165 179 r \$0-yosc2;
#X msg 101 202 24;
#X obj 439 618 cnv 15 190 200 empty empty empty 20 12 0 14 -85973 -66577
0;
#X obj 486 825 cnv 15 110 30 empty empty empty 20 12 0 14 -24198 -66577
0;
#X obj 561 739 cnv 15 65 75 empty empty empty 20 12 0 14 -24198 -66577
0;
#X msg 444 649 draw line;
#X msg 427 688 draw fill;
#X msg 444 626 draw point;
#X msg 444 669 draw linestrip;
#X msg 444 709 draw tri;
#X msg 444 731 draw tristrip;
#X msg 443 754 draw trifan;
#X msg 443 775 draw quad;
#X msg 443 797 draw quadstrip;
#X obj 491 516 rotateXYZ;
#X floatatom 566 667 10 0 0 0 - - -, f 10;
#X msg 564 689 width \$1;
#X floatatom 565 630 5 0 0 0 - - -, f 5;
#X obj 492 832 scopeXYZ~ 1024;
#X floatatom 564 722 5 0 0 0 - - -, f 5;
#X obj 644 785 osc~ 882;
#X msg 565 647 length \$1;
#X obj 564 745 adc~;
#X obj 625 818 *~ 2;
#X floatatom 691 724 9 0 0 0 - - -, f 9;
#X floatatom 624 618 5 0 0 0 - - -, f 5;
#X floatatom 577 499 5 0 0 0 - - -, f 5;
#X floatatom 639 702 5 0 0 0 - - -, f 5;
#X floatatom 599 722 5 0 0 0 - - -, f 5;
#X floatatom 706 762 5 0 0 0 - - -, f 5;
#X floatatom 716 782 5 0 0 0 - - -, f 5;
#X obj 493 581 alpha;
#X obj 432 566 tgl 15 1 empty empty empty 0 -6 0 8 -262144 -1 -1 1
1;
#X obj 493 602 color;
#X msg 706 588 1 1 1 1;
#X obj 679 102 tgl 15 1 empty empty empty 0 -6 0 8 -262144 -1 -1 0
1;
#X floatatom 540 497 5 0 0 0 - - -, f 5;
#X floatatom 505 497 5 0 0 0 - - -, f 5;
#X obj 565 274 repeat 1;
#X floatatom 608 256 5 0 0 0 - - -, f 5;
#X obj 549 772 *~ 3.98;
#X msg 577 478 270;
#X msg 616 234 20;
#X obj 517 380 r croix11;
#X obj 118 326 vsl 8 50 0 1 0 0 empty empty empty 0 -8 0 8 -258699
-1 -1 0 1;
#X obj 125 326 vsl 8 50 0 1 0 0 empty empty empty 0 -8 0 8 -24198 -1
-1 0 1;
#X obj 133 326 vsl 8 50 0 1 0 0 empty empty empty 0 -8 0 8 -355 -1
-1 0 1;
#N canvas 564 458 460 310 color 0;
#X obj 44 212 pack f f f f;
#X msg 44 236 \$1 \$2 \$3 \$4;
#X obj 26 145 bng 15 250 50 0 empty empty empty 0 -6 0 8 -262144 -1
-1;
#X obj 41 144 t b f;
#X obj 41 35 vsl 8 50 0 1 0 0 empty empty empty 0 -8 0 8 -258699 -1
-1 0 1;
#X obj 49 35 vsl 8 50 0 1 0 0 empty empty empty 0 -8 0 8 -24198 -1
-1 0 1;
#X obj 57 35 vsl 8 50 0 1 0 0 empty empty empty 0 -8 0 8 -355 -1 -1
0 1;
#X obj 65 35 vsl 8 50 0 1 0 0 empty empty empty 0 -8 0 8 -195568 -1
-1 2700 1;
#X obj 63 167 t b f;
#X obj 86 189 t b f;
#X floatatom 77 86 5 0 0 0 - - -, f 5;
#X floatatom 67 101 5 0 0 0 - - -, f 5;
#X floatatom 53 115 5 0 0 0 - - -, f 5;
#X floatatom 35 129 5 0 0 0 - - -, f 5;
#X obj 17 7 inlet;
#X obj 52 7 inlet;
#X obj 87 7 inlet;
#X obj 122 8 inlet;
#X obj 44 261 outlet;
#X connect 0 0 1 0;
#X connect 1 0 18 0;
#X connect 2 0 0 0;
#X connect 3 0 0 0;
#X connect 3 1 0 1;
#X connect 4 0 0 0;
#X connect 4 0 13 0;
#X connect 5 0 3 0;
#X connect 5 0 12 0;
#X connect 6 0 8 0;
#X connect 6 0 11 0;
#X connect 7 0 9 0;
#X connect 7 0 10 0;
#X connect 8 0 0 0;
#X connect 8 1 0 2;
#X connect 9 0 0 0;
#X connect 9 1 0 3;
#X connect 14 0 4 0;
#X connect 15 0 5 0;
#X connect 16 0 6 0;
#X connect 17 0 7 0;
#X restore 108 386 pd color;
#X obj 141 326 vsl 8 50 0 1 0 0 empty empty empty 0 -8 0 8 -195568
-1 -1 2700 1;
#X obj 133 291 tgl 10 0 empty empty empty 17 7 0 10 -99865 -262144
-1 0 1;
#X msg 155 313 0.551;
#X msg 756 588 1 0 0 0.551;
#X msg 651 659 3;
#X msg 689 659 1;
#X msg 613 478 0;
#X msg 642 234 1;
#X obj 785 291 r oscilloinit;
#X obj 713 642 r oscilloinit;
#X obj 651 638 r croix11;
#X msg 586 234 100;
#X obj 783 329 r dblecone12;
#X msg 507 470 0;
#X msg 533 470 182;
#X msg 641 478 86;
#X obj 797 644 r dblecone12;
#X msg 651 675 4;
#X floatatom 647 339 5 0 0 0 - - -, f 5;
#X floatatom 605 337 5 0 0 0 - - -, f 5;
#X floatatom 569 337 5 0 0 0 - - -, f 5;
#X msg 647 318 270;
#X msg 683 318 0;
#X msg 577 310 0;
#X obj 561 356 translateXYZ;
#X floatatom 765 183 5 0 0 0 - - -, f 5;
#X floatatom 728 181 5 0 0 0 - - -, f 5;
#X floatatom 693 181 5 0 0 0 - - -, f 5;
#X obj 679 200 translateXYZ;
#X obj 847 808 r whitspectroad;
#X obj 802 143 r whitspectroad;
#X msg 770 574 0 0 0 0.051;
#X msg 603 310 1;
#X msg 667 478 360;
#X msg 708 574 1 1 1 0.8;
#X msg 701 476 -2;
#X obj 122 651 spigot;
#X floatatom 134 573 5 0 0 0 - - -, f 5;
#X obj 137 557 hsl 128 15 0 127 0 0 empty empty empty -2 -6 0 8 -225271
-1 -1 100 1;
#X obj 135 521 r ib;
#X text 163 533 diviser bonk;
#X obj 122 592 r f1;
#X floatatom 134 617 3 0 0 0 - - -, f 3;
#X obj 122 631 / 99;
#X obj 156 634 tgl 15 0 empty empty ~_ 0 -6 0 8 -259674 -1 -1 0 1;
#X obj 173 653 spigot;
#X floatatom 185 619 3 0 0 0 - - -, f 3;
#X obj 173 633 / 99;
#X obj 207 636 tgl 15 0 empty empty ~_ 0 -6 0 8 -259674 -1 -1 0 1;
#X obj 225 655 spigot;
#X floatatom 237 621 3 0 0 0 - - -, f 3;
#X obj 225 635 / 99;
#X obj 259 638 tgl 15 0 empty empty ~_ 0 -6 0 8 -259674 -1 -1 0 1;
#X obj 278 657 spigot;
#X floatatom 290 623 3 0 0 0 - - -, f 3;
#X obj 278 637 / 99;
#X obj 312 640 tgl 15 0 empty empty ~_ 0 -6 0 8 -259674 -1 -1 0 1;
#X obj 329 659 spigot;
#X floatatom 341 625 3 0 0 0 - - -, f 3;
#X obj 329 639 / 99;
#X obj 363 642 tgl 15 0 empty empty ~_ 0 -6 0 8 -259674 -1 -1 0 1;
#X obj 381 661 spigot;
#X floatatom 393 627 3 0 0 0 - - -, f 3;
#X obj 381 641 / 99;
#X obj 415 644 tgl 15 0 empty empty ~_ 0 -6 0 8 -259674 -1 -1 0 1;
#X obj 173 594 r f3;
#X obj 225 596 r f5;
#X obj 278 598 r f7;
#X obj 329 600 r f9;
#X obj 381 602 r f11;
#X obj 122 678 f;
#X obj 122 698 - 0.01;
#X floatatom 195 690 5 0 0 0 - - -, f 5;
#X obj 278 683 hsl 128 15 0 0.3 0 0 empty ctl96 empty -2 -6 0 8 -262144
-1 -1 0 1;
#X obj 122 718 f;
#X msg 135 538 1;
#X obj 767 357 r dblecone12lign;
#X floatatom 351 784 5 0 0 0 - - -, f 5;
#X obj 785 377 r rotoscope;
#X msg 731 476 88;
#X msg 560 232 400;
#X obj 789 697 r rotoscope;
#X obj 421 430 r croix11grif;
#X msg 553 412 0;
#X msg 435 460 679;
#X obj 203 482 r oscilloinit;
#X obj 141 478 r croix11;
#X obj 287 484 r dblecone12;
#X obj 275 517 r whitspectroad;
#X obj 279 537 r rotoscope;
#X msg 173 514 0;
#X msg 274 574 1;
#X obj 785 401 r rotocroix;
#X msg 773 54 set 50;
#X msg 771 78 set 5;
#X msg 199 578 54;
#X msg 424 588 1 0 0 0.7;
#X obj 351 539 r rotoscopeBONK;
#X obj 373 521 r rotoscopeBONKQQQ;
#X msg 133 502 26;
#X obj 650 752 osc~ 221;
#X obj 579 792 *~ 5.68;
#X obj 465 153 r f6;
#X floatatom 410 221 5 0 0 0 - - -, f 5;
#X obj 465 178 moses 5;
#X obj 505 226 * 50;
#X obj 504 200 - 5;
#X floatatom 536 207 5 0 0 0 - - -, f 5;
#X floatatom 509 152 5 0 0 0 - - -, f 5;
#X msg 505 258 \$1 200;
#X obj 505 287 line;
#X floatatom 510 124 5 0 0 0 - - -, f 5;
#X obj 605 129 * 50;
#X floatatom 636 110 5 0 0 0 - - -, f 5;
#X floatatom 609 55 5 0 0 0 - - -, f 5;
#X msg 605 161 \$1 200;
#X obj 605 190 line;
#X obj 565 56 r f1;
#X obj 565 81 moses 2;
#X obj 604 103 - 2;
#X obj 756 726 r fantom;
#X msg 756 749 80;
#X msg 708 282 0;
#X msg 772 615 1 0 0 0.551;
#X msg 777 476 -2;
#X msg 716 681 4;
#X msg 715 709 512;
#X msg 752 784 5;
#X obj 445 118 inlet;
#X obj 122 240 r whitspectroad;
#X msg 768 814 5;
#X obj 679 124 gemhead 75;
#X obj 197 345 r rotoscopeRed;
#X obj 197 372 t b;
#X msg 315 578 1;
#X msg 229 578 54;
#X obj 257 375 t b;
#X obj 257 320 r rotoscopeRedfill;
#X msg 436 391 13;
#X msg 573 209 221;
#X msg 122 267 0;
#X msg 87 263 1;
#X msg 152 269 1;
#X floatatom 153 364 5 0 0 0 - - -, f 5;
#X msg 636 289 -10;
#X msg 178 269 0.051;
#X connect 0 0 71 1;
#X connect 1 0 0 0;
#X connect 7 0 8 0;
#X connect 7 0 70 0;
#X connect 9 0 1 0;
#X connect 10 0 7 0;
#X connect 13 0 11 0;
#X connect 13 0 12 0;
#X connect 14 0 66 0;
#X connect 18 0 19 0;
#X connect 19 0 14 0;
#X connect 20 0 16 0;
#X connect 21 0 7 0;
#X connect 23 0 22 0;
#X connect 25 0 24 0;
#X connect 26 0 25 0;
#X connect 27 0 29 0;
#X connect 28 0 20 0;
#X connect 28 0 32 0;
#X connect 30 0 12 0;
#X connect 32 0 17 0;
#X connect 36 0 49 0;
#X connect 37 0 49 0;
#X connect 38 0 49 0;
#X connect 39 0 49 0;
#X connect 40 0 49 0;
#X connect 41 0 49 0;
#X connect 42 0 49 0;
#X connect 43 0 49 0;
#X connect 44 0 49 0;
#X connect 45 0 62 0;
#X connect 46 0 47 0;
#X connect 47 0 49 0;
#X connect 48 0 52 0;
#X connect 50 0 53 0;
#X connect 51 0 54 0;
#X connect 52 0 49 0;
#X connect 53 0 71 0;
#X connect 55 0 179 0;
#X connect 56 0 52 0;
#X connect 57 0 45 3;
#X connect 58 0 180 1;
#X connect 59 0 71 1;
#X connect 60 0 51 0;
#X connect 61 0 54 1;
#X connect 62 0 64 0;
#X connect 63 0 62 0;
#X connect 64 0 49 0;
#X connect 65 0 64 1;
#X connect 66 0 210 0;
#X connect 67 0 45 2;
#X connect 68 0 45 1;
#X connect 69 0 103 0;
#X connect 70 0 69 1;
#X connect 71 0 49 2;
#X connect 72 0 57 0;
#X connect 73 0 70 0;
#X connect 74 0 73 0;
#X connect 74 0 82 0;
#X connect 74 0 92 0;
#X connect 74 0 102 0;
#X connect 74 0 101 0;
#X connect 74 0 72 0;
#X connect 74 0 162 0;
#X connect 75 0 78 0;
#X connect 76 0 78 1;
#X connect 77 0 78 2;
#X connect 78 0 64 1;
#X connect 79 0 78 3;
#X connect 79 0 222 0;
#X connect 80 0 79 0;
#X connect 81 0 79 0;
#X connect 82 0 64 1;
#X connect 83 0 46 0;
#X connect 84 0 46 0;
#X connect 85 0 57 0;
#X connect 86 0 70 0;
#X connect 87 0 85 0;
#X connect 87 0 86 0;
#X connect 87 0 65 0;
#X connect 87 0 92 0;
#X connect 87 0 101 0;
#X connect 87 0 102 0;
#X connect 87 0 162 0;
#X connect 87 0 172 0;
#X connect 88 0 84 0;
#X connect 88 0 36 0;
#X connect 88 0 96 0;
#X connect 89 0 83 0;
#X connect 89 0 96 0;
#X connect 89 0 41 0;
#X connect 90 0 70 0;
#X connect 91 0 90 0;
#X connect 91 0 93 0;
#X connect 91 0 94 0;
#X connect 91 0 102 0;
#X connect 91 0 101 0;
#X connect 91 0 113 0;
#X connect 91 0 162 0;
#X connect 91 0 173 0;
#X connect 92 0 68 0;
#X connect 93 0 68 0;
#X connect 94 0 57 0;
#X connect 95 0 36 0;
#X connect 95 0 84 0;
#X connect 95 0 204 0;
#X connect 96 0 59 0;
#X connect 97 0 103 3;
#X connect 98 0 103 2;
#X connect 99 0 103 1;
#X connect 100 0 97 0;
#X connect 101 0 97 0;
#X connect 102 0 98 0;
#X connect 103 0 45 0;
#X connect 104 0 107 3;
#X connect 105 0 107 2;
#X connect 106 0 107 1;
#X connect 107 0 69 0;
#X connect 108 0 204 0;
#X connect 108 0 205 0;
#X connect 108 0 206 0;
#X connect 108 0 209 0;
#X connect 108 0 37 0;
#X connect 109 0 223 0;
#X connect 109 0 201 0;
#X connect 109 0 112 0;
#X connect 109 0 93 0;
#X connect 109 0 73 0;
#X connect 109 0 162 0;
#X connect 109 0 172 0;
#X connect 110 0 64 1;
#X connect 111 0 98 0;
#X connect 112 0 57 0;
#X connect 113 0 64 1;
#X connect 114 0 57 0;
#X connect 115 0 149 0;
#X connect 116 0 121 0;
#X connect 116 0 125 0;
#X connect 116 0 129 0;
#X connect 116 0 133 0;
#X connect 116 0 137 0;
#X connect 116 0 141 0;
#X connect 117 0 116 0;
#X connect 118 0 154 0;
#X connect 120 0 122 0;
#X connect 121 0 122 1;
#X connect 122 0 115 0;
#X connect 123 0 115 1;
#X connect 124 0 149 0;
#X connect 125 0 126 1;
#X connect 126 0 124 0;
#X connect 127 0 124 1;
#X connect 128 0 149 0;
#X connect 129 0 130 1;
#X connect 130 0 128 0;
#X connect 131 0 128 1;
#X connect 132 0 149 0;
#X connect 133 0 134 1;
#X connect 134 0 132 0;
#X connect 135 0 132 1;
#X connect 136 0 149 0;
#X connect 137 0 138 1;
#X connect 138 0 136 0;
#X connect 139 0 136 1;
#X connect 140 0 149 0;
#X connect 141 0 142 1;
#X connect 142 0 140 0;
#X connect 143 0 140 1;
#X connect 144 0 126 0;
#X connect 145 0 130 0;
#X connect 146 0 134 0;
#X connect 147 0 138 0;
#X connect 148 0 142 0;
#X connect 149 0 150 0;
#X connect 150 0 153 0;
#X connect 151 0 150 1;
#X connect 152 0 151 0;
#X connect 153 0 45 3;
#X connect 154 0 117 0;
#X connect 155 0 114 0;
#X connect 155 0 162 0;
#X connect 155 0 173 0;
#X connect 157 0 110 0;
#X connect 157 0 158 0;
#X connect 157 0 92 0;
#X connect 157 0 101 0;
#X connect 157 0 102 0;
#X connect 157 0 159 0;
#X connect 157 0 162 0;
#X connect 157 0 172 0;
#X connect 158 0 57 0;
#X connect 159 0 70 0;
#X connect 160 0 59 0;
#X connect 160 0 84 0;
#X connect 160 0 36 0;
#X connect 161 0 163 0;
#X connect 161 0 85 0;
#X connect 162 0 67 0;
#X connect 163 0 67 0;
#X connect 164 0 169 0;
#X connect 165 0 169 0;
#X connect 166 0 169 0;
#X connect 167 0 169 0;
#X connect 168 0 169 0;
#X connect 169 0 123 0;
#X connect 170 0 123 0;
#X connect 171 0 72 0;
#X connect 171 0 172 0;
#X connect 171 0 110 0;
#X connect 172 0 210 0;
#X connect 173 0 210 0;
#X connect 174 0 117 0;
#X connect 175 0 64 1;
#X connect 176 0 170 0;
#X connect 176 0 154 0;
#X connect 176 0 110 0;
#X connect 177 0 178 0;
#X connect 177 0 170 0;
#X connect 177 0 110 0;
#X connect 178 0 117 0;
#X connect 179 0 180 0;
#X connect 180 0 49 1;
#X connect 181 0 183 0;
#X connect 183 1 185 0;
#X connect 184 0 188 0;
#X connect 185 0 184 0;
#X connect 186 0 184 1;
#X connect 187 0 183 1;
#X connect 188 0 189 0;
#X connect 191 0 194 0;
#X connect 192 0 191 1;
#X connect 193 0 197 1;
#X connect 194 0 195 0;
#X connect 196 0 197 0;
#X connect 197 1 198 0;
#X connect 198 0 191 0;
#X connect 199 0 200 0;
#X connect 200 0 59 0;
#X connect 201 0 97 0;
#X connect 204 0 59 0;
#X connect 205 0 48 0;
#X connect 206 0 46 0;
#X connect 207 0 79 0;
#X connect 208 0 219 0;
#X connect 208 0 224 0;
#X connect 209 0 59 0;
#X connect 210 0 107 0;
#X connect 211 0 212 0;
#X connect 212 0 170 0;
#X connect 212 0 174 0;
#X connect 212 0 175 0;
#X connect 212 0 36 0;
#X connect 212 0 218 0;
#X connect 213 0 123 0;
#X connect 214 0 117 0;
#X connect 215 0 214 0;
#X connect 215 0 213 0;
#X connect 215 0 175 0;
#X connect 215 0 37 0;
#X connect 215 0 217 0;
#X connect 216 0 215 0;
#X connect 217 0 70 0;
#X connect 218 0 70 0;
#X connect 219 0 75 0;
#X connect 219 0 76 0;
#X connect 219 0 77 0;
#X connect 221 0 79 0;
#X connect 223 0 98 0;
#X connect 224 0 79 0;
#X restore 395 289 pd OOOscillo;
#X floatatom 395 254 5 0 0 0 - - -, f 5;
#X obj 398 239 hsl 100 15 0 10 0 0 empty empty empty -2 -6 0 8 -225280
-1 -1 0 1;
#X floatatom 456 267 5 0 0 0 - - -, f 5;
#X text 455 254 Repeat;
#X obj 428 268 tgl 15 0 empty \$0-Vid_init0 OnOff 0 -6 0 8 -24198 -1
-1 0 1;
#X obj 482 291 r oscillon;
#X obj 510 246 vsl 8 50 0 1 0 0 empty empty empty 0 -8 0 8 -195568
-1 -1 2700 1;
#X obj 511 234 tgl 10 0 empty empty empty 17 7 0 10 -99865 -262144
-1 0 1;
#X msg 524 233 0.551;
#X obj 525 212 r ib;
#X msg 534 262 0.061;
#X obj 428 188 r trackoscillo;
#X obj 395 137 r rvolosc;
#X obj 395 173 maxlib/scale 0 127 0 8;
#X obj 513 45 AnalysAudioGHz;
#X obj 1366 129 tgl 21 0 empty empty GEM 0 -6 0 7 -258699 -24198 -1
0 1;
#X floatatom 1210 129 5 0 0 1 contrast - -, f 5;
#X floatatom 1166 128 5 0 0 0 - - -, f 5;
#X text 1187 115 grid;
#X obj 1127 86 tgl 19 0 empty empty Drive_contrast_sound 0 -6 0 8 -24198
-261689 -1 0 1;
#X msg 1170 85 12;
#X msg 1198 86 139;
#X msg 1231 87 666;
#X obj 1069 91 r gemhhh;
#X obj 1069 128 spigot;
#X obj 1019 107 tgl 21 0 empty empty GEM 0 -6 0 7 -258699 -24198 -1
0 1;
#X msg 1142 55 200;
#X floatatom 1236 109 5 0 0 1 saturation - -, f 5;
#X msg 1319 39 1.2;
#X msg 1278 41 2;
#X obj 1194 58 r nbrlignejoie;
#X obj 1056 54 r driveaudio;
#X obj 1331 78 r typejoie;
#X obj 1352 47 r varzjoie;
#X obj 485 144 s whitspectroad;
#X obj 490 119 bng 15 250 50 0 empty empty empty 17 7 0 10 -262144
-1 -1;
#X msg 837 68 7.424;
#X obj 1069 150 lignedejoie;
#X obj 1019 27 r gemlignejoie;
#X obj 969 67 r ib;
#X msg 969 90 0;
#X text 31 225 960x544 800x448 640x360 640x480;
#X obj 640 102 loadbang;
#X msg 640 121 0;
#X obj 679 224 loadbang;
#X msg 679 243 1;
#X obj 678 264 tgl 15 0 empty empty Affich_feedb 17 7 0 10 -4034 -1
-1 1 1;
#X text 30 288 Solenoides Midi;
#X text 44 313 grosse caisse 36;
#X text 44 336 caisse claire 37;
#X text 48 364 charley 41;
#X text 187 278 bidon rouge 44;
#X text 187 308 thermos 45;
#X text 187 321 pot peintue 46;
#X text 195 337 cloche 47;
#X obj 1442 316 s 1-msg;
#X msg 1442 221 opacity 1;
#X msg 1453 243 opacity 0;
#X msg 1459 268 big 1;
#X msg 1460 291 big 0;
#X msg 1529 220 opacity 1;
#X msg 1540 242 opacity 0;
#X msg 1546 267 big 1;
#X msg 1547 290 big 0;
#X msg 1615 220 opacity 1;
#X msg 1626 242 opacity 0;
#X msg 1632 267 big 1;
#X msg 1633 290 big 0;
#X msg 1702 219 opacity 1;
#X msg 1713 241 opacity 0;
#X msg 1719 266 big 1;
#X msg 1720 289 big 0;
#X msg 1786 219 opacity 1;
#X msg 1797 241 opacity 0;
#X msg 1803 266 big 1;
#X msg 1804 289 big 0;
#X obj 1529 315 s 2-msg;
#X obj 1615 315 s 3-msg;
#X obj 1702 314 s 4-msg;
#X obj 1786 314 s 5-msg;
#X floatatom 1637 59 3 0 0 0 - - -, f 3;
#X obj 1577 12 notein;
#X obj 1577 38 stripnote;
#X floatatom 1577 63 3 0 0 0 - - -, f 3;
#X obj 1577 89 spigot;
#X obj 1543 61 tgl 29 0 empty empty empty 17 7 0 10 -258165 -262144
-1 0 1;
#X obj 1577 112 sel 36 37 41 44 45 46 47;
#X obj 1547 141 t b b;
#X msg 1579 164 0;
#X obj 1592 140 t b b;
#X msg 1624 163 0;
#X obj 1579 186 s opa;
#X obj 1638 139 t b b;
#X msg 1670 162 0;
#X obj 1624 185 s opa;
#X obj 1670 184 s opa;
#X obj 1685 139 t b b;
#X msg 1717 162 0;
#X obj 1730 138 t b b;
#X msg 1762 161 0;
#X obj 1717 184 s opa;
#X obj 1762 183 s opa;
#X obj 289 151 bng 15 250 50 0 empty empty empty 17 7 0 10 -262144
-1 -1;
#X obj 911 381 r ib;
#X msg 911 401 1;
#X obj 112 428 r ib;
#X msg 112 448 1;
#X obj 1870 307 s 1-msg;
#X msg 1870 212 opacity 1;
#X msg 1881 234 opacity 0;
#X msg 1887 259 big 1;
#X msg 1888 282 big 0;
#X msg 1957 211 opacity 1;
#X msg 1968 233 opacity 0;
#X msg 1974 258 big 1;
#X msg 1975 281 big 0;
#X msg 2043 211 opacity 1;
#X msg 2054 233 opacity 0;
#X msg 2060 258 big 1;
#X msg 2061 281 big 0;
#X msg 2130 210 opacity 1;
#X msg 2141 232 opacity 0;
#X msg 2147 257 big 1;
#X msg 2148 280 big 0;
#X msg 2214 210 opacity 1;
#X msg 2225 232 opacity 0;
#X msg 2231 257 big 1;
#X msg 2232 280 big 0;
#X obj 1957 306 s 2-msg;
#X obj 2043 306 s 3-msg;
#X obj 2130 305 s 4-msg;
#X obj 2214 305 s 5-msg;
#X floatatom 2005 54 3 0 0 0 - - -, f 3;
#X obj 2005 80 spigot;
#X obj 1971 52 tgl 29 0 empty empty empty 17 7 0 10 -258165 -262144
-1 0 1;
#X obj 2005 103 sel 36 37 41 44 45 46 47;
#X obj 1975 132 t b b;
#X msg 2007 155 0;
#X obj 2020 131 t b b;
#X msg 2052 154 0;
#X obj 2066 130 t b b;
#X msg 2098 153 0;
#X obj 2113 130 t b b;
#X msg 2145 153 0;
#X obj 2158 129 t b b;
#X msg 2190 152 0;
#X obj 2007 177 s big;
#X obj 2052 176 s big;
#X obj 2098 175 s big;
#X obj 2145 175 s big;
#X obj 2190 174 s big;
#X obj 1652 515 s gain;
#X obj 1553 515 s cont;
#X obj 1606 515 s sat;
#X obj 1503 515 s mob;
#X obj 1706 515 s opa;
#X obj 1436 516 s big;
#X obj 1436 477 tgl 29 0 empty empty empty 17 7 0 10 -258165 -262144
-1 0 1;
#X obj 65 599 camera_blob 1 -3.54 2 7.13;
#X floatatom 1503 494 3 0 100 2 - - -, f 3;
#X obj 1503 431 vsl 12 60 0 1 0 0 empty empty Flou 0 -8 0 8 -195568
-258699 -1 0 1;
#X floatatom 1553 494 5 0 0 2 - - -, f 5;
#X floatatom 1606 491 5 0 0 2 - - -, f 5;
#X obj 1553 406 vsl 12 80 -21 127 0 0 empty empty contrast 0 -9 0 10
-128992 -262144 -1 0 1;
#X obj 1606 395 vsl 12 80 0 127 0 0 empty empty saturation 0 -9 0 10
-257985 -258113 -1 0 1;
#X floatatom 1652 493 5 0 0 2 - - -, f 5;
#X obj 1652 405 vsl 12 80 0 127 0 0 empty empty gain 0 -9 0 10 -191407
-262144 -1 0 1;
#X msg 1669 452 1;
#X msg 1670 475 -1;
#X obj 1707 408 vsl 21 80 0 1 0 0 empty ctl4 Opacite 0 -8 0 8 -195568
-1 -1 0 1;
#X floatatom 1706 492 5 0 0 0 - - -, f 5;
#X msg 1754 388 1;
#X msg 1759 417 0;
#X obj 1469 588 cnv 15 303 100 empty empty LecteurVid_01 12 12 0 10
-225271 -66577 0;
#X obj 1479 643 LecteurVideo_glitch_Audio_01;
#X symbolatom 1479 665 52 0 0 0 - - -, f 52;
#X obj 1469 692 cnv 15 303 100 empty empty LecteurVid_02 12 12 0 10
-225271 -66577 0;
#X obj 1479 723 bng 21 250 50 0 empty empty load 0 -6 0 8 -24198 -258699
-1;
#X obj 1509 729 tgl 19 0 empty ctl67 empty 0 -6 0 8 -258699 -1 -1 0
1;
#X symbolatom 1479 769 52 0 0 0 - - -, f 52;
#X obj 1479 747 LecteurVideo_glitch_Audio_02;
#X obj 1540 728 tgl 15 0 empty ctl75i empty 0 -6 0 8 -262144 -1 -1
0 1;
#X obj 1573 724 tgl 15 0 empty ctl35 Alph_P 0 -6 0 8 -257472 -1 -1
0 1;
#X obj 1652 742 tgl 15 0 empty ctl35 ~_Pack 0 -6 0 8 -258699 -1 -1
0 1;
#X obj 1612 717 hsl 128 9 0 2 0 0 empty empty empty -2 -6 0 8 -257472
-1 -1 0 1;
#X floatatom 1609 728 5 0 0 0 - - -, f 5;
#X obj 1612 705 hsl 132 9 0 30 0 0 empty ctl83 empty -2 -6 0 8 -244223
-1 -1 0 1;
#X text 1541 714 Auto;
#X text 1510 714 GEM;
#X obj 1479 618 bng 21 250 50 0 empty empty load 0 -6 0 8 -24198 -258699
-1;
#X obj 1511 624 tgl 19 0 empty ctl68 empty 0 -6 0 8 -258699 -1 -1 0
1;
#X obj 1537 623 tgl 15 0 empty ctl76i empty 0 -6 0 8 -262144 -1 -1
0 1;
#X obj 1568 624 tgl 15 0 empty ctl36 Alph_P 0 -6 0 8 -257472 -1 -1
0 1;
#X obj 1652 637 tgl 15 0 empty ctl36 ~_Pack 0 -6 0 8 -258699 -1 -1
0 1;
#X obj 1617 601 hsl 128 9 0 2 0 0 empty empty empty -2 -6 0 8 -257472
-1 -1 0 1;
#X floatatom 1614 612 5 0 0 0 - - -, f 5;
#X obj 1617 589 hsl 132 9 0 30 0 0 empty ctl84 empty -2 -6 0 8 -244223
-1 -1 0 1;
#X text 1541 609 Auto;
#X text 1510 609 GEM;
#X obj 1432 576 vsl 8 50 0 1 0 0 empty ctl4 empty 0 -8 0 8 -195568
-1 -1 0 1;
#X floatatom 1432 629 5 0 0 0 - - -, f 5;
#X obj 1432 676 vsl 8 50 0 1 0 0 empty ctl3 empty 0 -8 0 8 -195568
-1 -1 0 1;
#X floatatom 1432 729 5 0 0 0 - - -, f 5;
#X obj 1565 693 s vid2;
#X obj 1565 593 r ib0;
#X obj 1510 689 r ib0;
#X obj 185 242 bng 32 250 50 0 empty empty empty 17 7 0 10 -262144
-1 -1;
#X obj 186 188 tgl 15 0 empty empty empty 17 7 0 10 -262144 -1 -1 0
1;
#X floatatom 234 183 5 0 0 0 - - -, f 5;
#X obj 182 116 bng 32 250 50 0 empty empty Buffer1 0 -7 0 10 -232576
-1 -1;
#X obj 232 117 bng 32 250 50 0 empty empty Buffer2 0 -7 0 10 -261682
-1 -1;
#N canvas 3 463 656 323 bufferzap 0;
#X obj 298 196 s gemwinmsg;
#X msg 239 123 create \, 1;
#X obj 224 -65 inlet;
#X msg 284 31 buffer 2;
#X msg 300 7 0 \, destroy;
#X obj 224 172 s mbuf;
#X msg 224 73 0;
#X msg 258 98 color 0 0 0;
#X obj 224 -18 t b b b b b b;
#X obj -17 198 s gemwinmsg;
#X msg -76 125 create \, 1;
#X obj -91 -63 inlet;
#X msg -15 9 0 \, destroy;
#X obj -91 174 s mbuf;
#X msg -57 100 color 0 0 0;
#X obj -91 -16 t b b b b b b;
#X msg -31 33 buffer 1;
#X msg -91 75 1;
#X msg -9 147 dimen 1024 768 \, offset 1366 0 \, border 1;
#X msg 309 148 dimen 1024 768 \, offset 1366 0 \, border 1;
#X msg -46 61 dimen 960 540 \, offset 0 0 \, border 1;
#X msg 269 59 dimen 960 540 \, offset 0 0 \, border 1;
#X connect 1 0 0 0;
#X connect 2 0 8 0;
#X connect 3 0 0 0;
#X connect 4 0 0 0;
#X connect 6 0 5 0;
#X connect 7 0 0 0;
#X connect 8 0 6 0;
#X connect 8 1 1 0;
#X connect 8 2 7 0;
#X connect 8 3 21 0;
#X connect 8 4 3 0;
#X connect 8 5 4 0;
#X connect 10 0 9 0;
#X connect 11 0 15 0;
#X connect 12 0 9 0;
#X connect 14 0 9 0;
#X connect 15 0 17 0;
#X connect 15 1 10 0;
#X connect 15 2 14 0;
#X connect 15 3 20 0;
#X connect 15 4 16 0;
#X connect 15 5 12 0;
#X connect 16 0 9 0;
#X connect 17 0 13 0;
#X connect 18 0 9 0;
#X connect 19 0 0 0;
#X connect 20 0 9 0;
#X connect 21 0 0 0;
#X restore 182 164 pd bufferzap;
#X obj 185 207 metro 1000;
#X obj 1505 544 loadbang;
#X msg 1505 566 0;
#X msg 373 696 dimen 1440 900 \, offset 1920 0 \, border 0 \, cursor
1 \, create \, 1;
#X msg 478 500 -1;
#X msg 39 47 dimen 3840 800 \, offset 1440 0 \, border 0 \, cursor
0 \, create \, 1;
#X msg 66 71 dimen 960 200 \, offset 0 0 \, border 1 \, cursor 0 \,
create \, 1;
#X obj 864 546 camera_blob2 2 3.54 2 7.13;
#X msg 1277 447 -1;
#X connect 2 0 1 0;
#X connect 4 0 309 6;
#X connect 5 0 52 0;
#X connect 6 0 53 0;
#X connect 10 0 309 1;
#X connect 11 0 309 0;
#X connect 12 0 4 0;
#X connect 13 0 14 0;
#X connect 14 0 309 5;
#X connect 15 0 309 4;
#X connect 16 0 309 2;
#X connect 17 0 309 3;
#X connect 18 0 309 7;
#X connect 19 0 18 0;
#X connect 20 0 18 1;
#X connect 21 0 19 0;
#X connect 22 0 309 8;
#X connect 23 0 309 9;
#X connect 24 0 22 0;
#X connect 25 0 23 0;
#X connect 26 0 22 0;
#X connect 27 0 22 0;
#X connect 28 0 23 0;
#X connect 29 0 22 0;
#X connect 30 0 23 0;
#X connect 31 0 22 0;
#X connect 32 0 23 0;
#X connect 33 0 22 0;
#X connect 34 0 23 0;
#X connect 35 0 309 10;
#X connect 36 0 35 0;
#X connect 37 0 23 0;
#X connect 38 0 39 0;
#X connect 38 1 40 0;
#X connect 39 0 35 0;
#X connect 40 0 35 0;
#X connect 41 0 35 0;
#X connect 42 0 35 0;
#X connect 43 0 35 0;
#X connect 44 0 35 0;
#X connect 45 0 23 0;
#X connect 46 0 22 0;
#X connect 47 0 23 0;
#X connect 48 0 49 0;
#X connect 49 0 309 11;
#X connect 50 0 253 0;
#X connect 52 0 12 0;
#X connect 53 0 13 0;
#X connect 54 0 55 0;
#X connect 55 0 17 0;
#X connect 57 0 370 6;
#X connect 58 0 103 0;
#X connect 59 0 104 0;
#X connect 63 0 370 1;
#X connect 64 0 370 0;
#X connect 65 0 57 0;
#X connect 66 0 67 0;
#X connect 67 0 370 5;
#X connect 68 0 370 4;
#X connect 69 0 370 2;
#X connect 70 0 370 3;
#X connect 71 0 370 7;
#X connect 72 0 71 0;
#X connect 73 0 71 1;
#X connect 74 0 72 0;
#X connect 75 0 370 8;
#X connect 76 0 370 9;
#X connect 77 0 75 0;
#X connect 78 0 76 0;
#X connect 79 0 75 0;
#X connect 80 0 75 0;
#X connect 81 0 76 0;
#X connect 82 0 75 0;
#X connect 83 0 76 0;
#X connect 84 0 75 0;
#X connect 85 0 76 0;
#X connect 86 0 75 0;
#X connect 87 0 76 0;
#X connect 88 0 370 10;
#X connect 89 0 88 0;
#X connect 90 0 76 0;
#X connect 91 0 92 0;
#X connect 91 1 93 0;
#X connect 92 0 88 0;
#X connect 93 0 88 0;
#X connect 94 0 88 0;
#X connect 95 0 88 0;
#X connect 96 0 88 0;
#X connect 97 0 88 0;
#X connect 98 0 76 0;
#X connect 99 0 75 0;
#X connect 100 0 76 0;
#X connect 101 0 102 0;
#X connect 102 0 370 11;
#X connect 103 0 65 0;
#X connect 104 0 66 0;
#X connect 105 0 106 0;
#X connect 106 0 70 0;
#X connect 108 0 111 0;
#X connect 109 0 111 1;
#X connect 110 0 111 2;
#X connect 111 0 107 1;
#X connect 112 0 111 3;
#X connect 113 0 108 0;
#X connect 113 0 109 0;
#X connect 113 0 110 0;
#X connect 114 0 112 0;
#X connect 115 0 112 0;
#X connect 116 0 107 0;
#X connect 117 0 107 2;
#X connect 118 0 117 0;
#X connect 119 0 115 0;
#X connect 119 0 113 0;
#X connect 119 0 187 0;
#X connect 120 0 117 0;
#X connect 121 0 117 0;
#X connect 122 0 117 0;
#X connect 123 0 117 0;
#X connect 124 0 123 0;
#X connect 125 0 117 0;
#X connect 126 0 117 0;
#X connect 127 0 128 0;
#X connect 127 0 187 0;
#X connect 128 0 112 0;
#X connect 129 0 117 0;
#X connect 130 0 107 3;
#X connect 131 0 130 0;
#X connect 132 0 130 1;
#X connect 133 0 134 0;
#X connect 133 0 131 0;
#X connect 134 0 129 0;
#X connect 134 0 115 0;
#X connect 136 0 116 0;
#X connect 137 0 146 0;
#X connect 138 0 141 0;
#X connect 139 0 140 0;
#X connect 140 0 138 0;
#X connect 141 0 144 0;
#X connect 142 0 144 1;
#X connect 143 0 145 1;
#X connect 144 0 145 0;
#X connect 146 0 139 0;
#X connect 147 0 146 1;
#X connect 148 0 147 0;
#X connect 151 0 150 0;
#X connect 152 0 151 0;
#X connect 153 0 150 2;
#X connect 155 0 150 1;
#X connect 156 0 155 0;
#X connect 157 0 150 3;
#X connect 158 0 157 0;
#X connect 159 0 157 0;
#X connect 160 0 159 0;
#X connect 161 0 157 0;
#X connect 162 0 155 0;
#X connect 163 0 164 0;
#X connect 164 0 152 0;
#X connect 166 0 188 7;
#X connect 167 0 188 3;
#X connect 168 0 188 2;
#X connect 170 0 188 1;
#X connect 171 0 168 0;
#X connect 172 0 168 0;
#X connect 173 0 168 0;
#X connect 174 0 175 0;
#X connect 175 0 188 0;
#X connect 176 0 175 1;
#X connect 176 0 166 0;
#X connect 177 0 168 0;
#X connect 178 0 188 4;
#X connect 179 0 188 6;
#X connect 180 0 188 5;
#X connect 182 0 170 0;
#X connect 183 0 188 5;
#X connect 184 0 188 6;
#X connect 186 0 185 0;
#X connect 187 0 117 0;
#X connect 189 0 176 0;
#X connect 190 0 191 0;
#X connect 191 0 176 0;
#X connect 193 0 194 0;
#X connect 194 0 116 0;
#X connect 195 0 196 0;
#X connect 196 0 197 0;
#X connect 197 0 107 4;
#X connect 207 0 206 0;
#X connect 208 0 206 0;
#X connect 209 0 206 0;
#X connect 210 0 206 0;
#X connect 211 0 227 0;
#X connect 212 0 227 0;
#X connect 213 0 227 0;
#X connect 214 0 227 0;
#X connect 215 0 228 0;
#X connect 216 0 228 0;
#X connect 217 0 228 0;
#X connect 218 0 228 0;
#X connect 219 0 229 0;
#X connect 220 0 229 0;
#X connect 221 0 229 0;
#X connect 222 0 229 0;
#X connect 223 0 230 0;
#X connect 224 0 230 0;
#X connect 225 0 230 0;
#X connect 226 0 230 0;
#X connect 232 0 233 0;
#X connect 232 1 233 1;
#X connect 233 0 234 0;
#X connect 233 1 231 0;
#X connect 234 0 235 0;
#X connect 234 0 284 0;
#X connect 235 0 237 0;
#X connect 236 0 235 1;
#X connect 237 0 238 0;
#X connect 237 1 240 0;
#X connect 237 2 243 0;
#X connect 237 3 247 0;
#X connect 237 4 249 0;
#X connect 238 0 207 0;
#X connect 238 1 239 0;
#X connect 239 0 242 0;
#X connect 240 0 211 0;
#X connect 240 1 241 0;
#X connect 241 0 245 0;
#X connect 243 0 215 0;
#X connect 243 1 244 0;
#X connect 244 0 246 0;
#X connect 247 0 219 0;
#X connect 247 1 248 0;
#X connect 248 0 251 0;
#X connect 249 0 223 0;
#X connect 249 1 250 0;
#X connect 250 0 252 0;
#X connect 253 0 51 0;
#X connect 254 0 255 0;
#X connect 255 0 68 0;
#X connect 255 0 69 0;
#X connect 256 0 257 0;
#X connect 257 0 15 0;
#X connect 257 0 16 0;
#X connect 259 0 258 0;
#X connect 260 0 258 0;
#X connect 261 0 258 0;
#X connect 262 0 258 0;
#X connect 263 0 279 0;
#X connect 264 0 279 0;
#X connect 265 0 279 0;
#X connect 266 0 279 0;
#X connect 267 0 280 0;
#X connect 268 0 280 0;
#X connect 269 0 280 0;
#X connect 270 0 280 0;
#X connect 271 0 281 0;
#X connect 272 0 281 0;
#X connect 273 0 281 0;
#X connect 274 0 281 0;
#X connect 275 0 282 0;
#X connect 276 0 282 0;
#X connect 277 0 282 0;
#X connect 278 0 282 0;
#X connect 283 0 284 0;
#X connect 284 0 286 0;
#X connect 285 0 284 1;
#X connect 286 0 287 0;
#X connect 286 1 289 0;
#X connect 286 2 291 0;
#X connect 286 3 293 0;
#X connect 286 4 295 0;
#X connect 287 0 261 0;
#X connect 287 1 288 0;
#X connect 288 0 297 0;
#X connect 289 0 265 0;
#X connect 289 1 290 0;
#X connect 290 0 298 0;
#X connect 291 0 269 0;
#X connect 291 1 292 0;
#X connect 292 0 299 0;
#X connect 293 0 273 0;
#X connect 293 1 294 0;
#X connect 294 0 300 0;
#X connect 295 0 277 0;
#X connect 295 1 296 0;
#X connect 296 0 301 0;
#X connect 308 0 307 0;
#X connect 310 0 305 0;
#X connect 311 0 310 0;
#X connect 312 0 303 0;
#X connect 313 0 304 0;
#X connect 314 0 312 0;
#X connect 315 0 313 0;
#X connect 316 0 302 0;
#X connect 317 0 316 0;
#X connect 318 0 316 0;
#X connect 319 0 316 0;
#X connect 320 0 321 0;
#X connect 321 0 306 0;
#X connect 322 0 320 0;
#X connect 323 0 320 0;
#X connect 325 0 326 0;
#X connect 328 0 331 0;
#X connect 329 0 331 1;
#X connect 329 0 354 0;
#X connect 331 0 330 0;
#X connect 332 0 331 2;
#X connect 333 0 331 4;
#X connect 334 0 331 6;
#X connect 335 0 336 0;
#X connect 336 0 331 5;
#X connect 337 0 336 0;
#X connect 340 0 325 0;
#X connect 341 0 325 1;
#X connect 342 0 325 2;
#X connect 343 0 325 4;
#X connect 344 0 325 6;
#X connect 345 0 346 0;
#X connect 346 0 325 5;
#X connect 347 0 346 0;
#X connect 350 0 351 0;
#X connect 351 0 325 3;
#X connect 352 0 353 0;
#X connect 353 0 331 3;
#X connect 355 0 341 0;
#X connect 356 0 329 0;
#X connect 358 0 363 0;
#X connect 359 0 363 1;
#X connect 360 0 362 0;
#X connect 361 0 362 1;
#X connect 363 0 357 0;
#X connect 364 0 365 0;
#X connect 365 0 341 0;
#X connect 365 0 329 0;
#X connect 366 0 1 0;
#X connect 367 0 35 0;
#X connect 368 0 1 0;
#X connect 369 0 1 0;
#X connect 371 0 88 0;
